ISO-10303-21;
HEADER;
FILE_DESCRIPTION(('Open CASCADE Model'),'2;1');
FILE_NAME('Open CASCADE Shape Model','2026-09-14T11:51:28',('Author'),(
    'Open CASCADE'),'Open CASCADE STEP processor 7.9','build123d',
  'Unknown');
FILE_SCHEMA(('AUTOMOTIVE_DESIGN { 1 0 10303 214 1 1 1 1 }'));
ENDSEC;
DATA;
#1 = APPLICATION_PROTOCOL_DEFINITION('international standard',
  'automotive_design',2000,#2);
#2 = APPLICATION_CONTEXT(
  'core data for automotive mechanical design processes');
#3 = SHAPE_DEFINITION_REPRESENTATION(#4,#10);
#4 = PRODUCT_DEFINITION_SHAPE('','',#5);
#5 = PRODUCT_DEFINITION('design','',#6,#9);
#6 = PRODUCT_DEFINITION_FORMATION('','',#7);
#7 = PRODUCT('COMPOUND','COMPOUND','',(#8));
#8 = PRODUCT_CONTEXT('',#2,'mechanical');
#9 = PRODUCT_DEFINITION_CONTEXT('part definition',#2,'design');
#10 = ADVANCED_BREP_SHAPE_REPRESENTATION('',(#11,#15),#1396);
#11 = AXIS2_PLACEMENT_3D('',#12,#13,#14);
#12 = CARTESIAN_POINT('',(0.,0.,0.));
#13 = DIRECTION('',(0.,0.,1.));
#14 = DIRECTION('',(1.,0.,-0.));
#15 = MANIFOLD_SOLID_BREP('',#16);
#16 = CLOSED_SHELL('',(#17,#452,#456,#491,#569,#574,#629,#664,#699,#754,
    #809,#1182,#1217,#1330,#1335,#1385,#1389));
#17 = ADVANCED_FACE('',(#18,#105),#32,.T.);
#18 = FACE_BOUND('',#19,.T.);
#19 = EDGE_LOOP('',(#20,#50,#77,#78));
#20 = ORIENTED_EDGE('',*,*,#21,.T.);
#21 = EDGE_CURVE('',#22,#24,#26,.T.);
#22 = VERTEX_POINT('',#23);
#23 = CARTESIAN_POINT('',(70.,-1.714505518806E-14,0.));
#24 = VERTEX_POINT('',#25);
#25 = CARTESIAN_POINT('',(70.,-1.714505518806E-14,90.));
#26 = SEAM_CURVE('',#27,(#31,#43),.PCURVE_S1.);
#27 = LINE('',#28,#29);
#28 = CARTESIAN_POINT('',(70.,-1.714505518806E-14,0.));
#29 = VECTOR('',#30,1.);
#30 = DIRECTION('',(0.,0.,1.));
#31 = PCURVE('',#32,#37);
#32 = CYLINDRICAL_SURFACE('',#33,70.);
#33 = AXIS2_PLACEMENT_3D('',#34,#35,#36);
#34 = CARTESIAN_POINT('',(0.,0.,0.));
#35 = DIRECTION('',(0.,0.,1.));
#36 = DIRECTION('',(1.,0.,-0.));
#37 = DEFINITIONAL_REPRESENTATION('',(#38),#42);
#38 = LINE('',#39,#40);
#39 = CARTESIAN_POINT('',(6.28318530718,-0.));
#40 = VECTOR('',#41,1.);
#41 = DIRECTION('',(0.,1.));
#42 = ( GEOMETRIC_REPRESENTATION_CONTEXT(2) 
PARAMETRIC_REPRESENTATION_CONTEXT() REPRESENTATION_CONTEXT('2D SPACE',''
  ) );
#43 = PCURVE('',#32,#44);
#44 = DEFINITIONAL_REPRESENTATION('',(#45),#49);
#45 = LINE('',#46,#47);
#46 = CARTESIAN_POINT('',(0.,-0.));
#47 = VECTOR('',#48,1.);
#48 = DIRECTION('',(0.,1.));
#49 = ( GEOMETRIC_REPRESENTATION_CONTEXT(2) 
PARAMETRIC_REPRESENTATION_CONTEXT() REPRESENTATION_CONTEXT('2D SPACE',''
  ) );
#50 = ORIENTED_EDGE('',*,*,#51,.F.);
#51 = EDGE_CURVE('',#24,#24,#52,.T.);
#52 = SURFACE_CURVE('',#53,(#58,#65),.PCURVE_S1.);
#53 = CIRCLE('',#54,70.);
#54 = AXIS2_PLACEMENT_3D('',#55,#56,#57);
#55 = CARTESIAN_POINT('',(0.,0.,90.));
#56 = DIRECTION('',(0.,0.,1.));
#57 = DIRECTION('',(1.,0.,-0.));
#58 = PCURVE('',#32,#59);
#59 = DEFINITIONAL_REPRESENTATION('',(#60),#64);
#60 = LINE('',#61,#62);
#61 = CARTESIAN_POINT('',(0.,90.));
#62 = VECTOR('',#63,1.);
#63 = DIRECTION('',(1.,0.));
#64 = ( GEOMETRIC_REPRESENTATION_CONTEXT(2) 
PARAMETRIC_REPRESENTATION_CONTEXT() REPRESENTATION_CONTEXT('2D SPACE',''
  ) );
#65 = PCURVE('',#66,#71);
#66 = PLANE('',#67);
#67 = AXIS2_PLACEMENT_3D('',#68,#69,#70);
#68 = CARTESIAN_POINT('',(0.,0.,90.));
#69 = DIRECTION('',(0.,0.,1.));
#70 = DIRECTION('',(1.,0.,-0.));
#71 = DEFINITIONAL_REPRESENTATION('',(#72),#76);
#72 = CIRCLE('',#73,70.);
#73 = AXIS2_PLACEMENT_2D('',#74,#75);
#74 = CARTESIAN_POINT('',(0.,0.));
#75 = DIRECTION('',(1.,0.));
#76 = ( GEOMETRIC_REPRESENTATION_CONTEXT(2) 
PARAMETRIC_REPRESENTATION_CONTEXT() REPRESENTATION_CONTEXT('2D SPACE',''
  ) );
#77 = ORIENTED_EDGE('',*,*,#21,.F.);
#78 = ORIENTED_EDGE('',*,*,#79,.T.);
#79 = EDGE_CURVE('',#22,#22,#80,.T.);
#80 = SURFACE_CURVE('',#81,(#86,#93),.PCURVE_S1.);
#81 = CIRCLE('',#82,70.);
#82 = AXIS2_PLACEMENT_3D('',#83,#84,#85);
#83 = CARTESIAN_POINT('',(0.,0.,0.));
#84 = DIRECTION('',(0.,0.,1.));
#85 = DIRECTION('',(1.,0.,-0.));
#86 = PCURVE('',#32,#87);
#87 = DEFINITIONAL_REPRESENTATION('',(#88),#92);
#88 = LINE('',#89,#90);
#89 = CARTESIAN_POINT('',(0.,0.));
#90 = VECTOR('',#91,1.);
#91 = DIRECTION('',(1.,0.));
#92 = ( GEOMETRIC_REPRESENTATION_CONTEXT(2) 
PARAMETRIC_REPRESENTATION_CONTEXT() REPRESENTATION_CONTEXT('2D SPACE',''
  ) );
#93 = PCURVE('',#94,#99);
#94 = PLANE('',#95);
#95 = AXIS2_PLACEMENT_3D('',#96,#97,#98);
#96 = CARTESIAN_POINT('',(0.,0.,0.));
#97 = DIRECTION('',(0.,0.,1.));
#98 = DIRECTION('',(1.,0.,-0.));
#99 = DEFINITIONAL_REPRESENTATION('',(#100),#104);
#100 = CIRCLE('',#101,70.);
#101 = AXIS2_PLACEMENT_2D('',#102,#103);
#102 = CARTESIAN_POINT('',(0.,0.));
#103 = DIRECTION('',(1.,0.));
#104 = ( GEOMETRIC_REPRESENTATION_CONTEXT(2) 
PARAMETRIC_REPRESENTATION_CONTEXT() REPRESENTATION_CONTEXT('2D SPACE',''
  ) );
#105 = FACE_BOUND('',#106,.T.);
#106 = EDGE_LOOP('',(#107,#365,#421));
#107 = ORIENTED_EDGE('',*,*,#108,.F.);
#108 = EDGE_CURVE('',#109,#111,#113,.T.);
#109 = VERTEX_POINT('',#110);
#110 = CARTESIAN_POINT('',(12.5,-68.87488656978,66.87488656978));
#111 = VERTEX_POINT('',#112);
#112 = CARTESIAN_POINT('',(-8.362133507238,-69.49873900443,
    54.35912537183));
#113 = SURFACE_CURVE('',#114,(#194,#277),.PCURVE_S1.);
#114 = B_SPLINE_CURVE_WITH_KNOTS('',8,(#115,#116,#117,#118,#119,#120,
    #121,#122,#123,#124,#125,#126,#127,#128,#129,#130,#131,#132,#133,
    #134,#135,#136,#137,#138,#139,#140,#141,#142,#143,#144,#145,#146,
    #147,#148,#149,#150,#151,#152,#153,#154,#155,#156,#157,#158,#159,
    #160,#161,#162,#163,#164,#165,#166,#167,#168,#169,#170,#171,#172,
    #173,#174,#175,#176,#177,#178,#179,#180,#181,#182,#183,#184,#185,
    #186,#187,#188,#189,#190,#191,#192,#193),.UNSPECIFIED.,.F.,.F.,(9,7,
    7,7,7,7,7,7,7,7,7,9),(0.,5.728640451194E-02,0.170583118306,
    0.28870714473,0.347514492441,0.386690255417,0.432020132248,
    0.46518647042,0.585270385855,0.71650724027,0.947067664403,1.),
  .UNSPECIFIED.);
#115 = CARTESIAN_POINT('',(12.5,-68.87488656978,66.87488656978));
#116 = CARTESIAN_POINT('',(12.5,-68.87488656978,67.285443798122));
#117 = CARTESIAN_POINT('',(12.492294723435,-68.87628502639,
    67.695722945073));
#118 = CARTESIAN_POINT('',(12.476993668008,-68.87906194672,
    68.105658551512));
#119 = CARTESIAN_POINT('',(12.454185011675,-68.88319643555,
    68.515186995721));
#120 = CARTESIAN_POINT('',(12.423935636644,-68.88866679278,
    68.924246453522));
#121 = CARTESIAN_POINT('',(12.386291153358,-68.89545061079,
    69.332776858435));
#122 = CARTESIAN_POINT('',(12.34127592449,-68.90352487191,
    69.740719861818));
#123 = CARTESIAN_POINT('',(12.185294282567,-68.93134031236,
    70.953543783291));
#124 = CARTESIAN_POINT('',(12.052994923733,-68.95474899924,
    71.755630369793));
#125 = CARTESIAN_POINT('',(11.892052818129,-68.98290370819,
    72.554459685179));
#126 = CARTESIAN_POINT('',(11.702076747641,-69.01562869204,
    73.350078439783));
#127 = CARTESIAN_POINT('',(11.482270848253,-69.05274585844,
    74.142229971433));
#128 = CARTESIAN_POINT('',(11.231477215615,-69.09405050105,
    74.930187081867));
#129 = CARTESIAN_POINT('',(10.948216738275,-69.13927775828,
    75.712586659739));
#130 = CARTESIAN_POINT('',(10.299712120042,-69.23892033138,
    77.294952831064));
#131 = CARTESIAN_POINT('',(9.934564301776,-69.29317229212,
    78.086742421971));
#132 = CARTESIAN_POINT('',(9.531091407039,-69.35079842707,
    78.868763513349));
#133 = CARTESIAN_POINT('',(9.083472631293,-69.41180215891,
    79.644150511107));
#134 = CARTESIAN_POINT('',(8.584905287241,-69.47598865653,
    80.412136147528));
#135 = CARTESIAN_POINT('',(8.02808429016,-69.54271657977,81.167393053303
    ));
#136 = CARTESIAN_POINT('',(7.405679953287,-69.61065285879,
    81.899386494873));
#137 = CARTESIAN_POINT('',(6.365125556019,-69.71087361775,
    82.936065274784));
#138 = CARTESIAN_POINT('',(6.000866251819,-69.74397738987,
    83.271231864981));
#139 = CARTESIAN_POINT('',(5.615027750649,-69.77681321263,
    83.597147858263));
#140 = CARTESIAN_POINT('',(5.204490064656,-69.80919109254,
    83.912528874133));
#141 = CARTESIAN_POINT('',(4.766288021222,-69.84075469018,
    84.214603203531));
#142 = CARTESIAN_POINT('',(4.297713621631,-69.87095491707,84.4990537585)
  );
#143 = CARTESIAN_POINT('',(3.796418835167,-69.89903445171,84.7599572732)
  );
#144 = CARTESIAN_POINT('',(2.903517663756,-69.94066994333,
    85.142782577623));
#145 = CARTESIAN_POINT('',(2.526883912001,-69.95614447367,
    85.283857979365));
#146 = CARTESIAN_POINT('',(2.133281222882,-69.96992313614,
    85.408464083597));
#147 = CARTESIAN_POINT('',(1.725277266727,-69.98154263233,
    85.512844956374));
#148 = CARTESIAN_POINT('',(1.305407812983,-69.99061435752,85.59395464549
    ));
#149 = CARTESIAN_POINT('',(0.876211119527,-69.9968359461,85.649446608316
    ));
#150 = CARTESIAN_POINT('',(0.440232632974,-70.,85.677669529664));
#151 = CARTESIAN_POINT('',(-0.509388701422,-70.,85.677669529664));
#152 = CARTESIAN_POINT('',(-1.01133329629,-69.99576385745,
    85.639883144118));
#153 = CARTESIAN_POINT('',(-1.502694321805,-69.98750724208,
    85.566241746679));
#154 = CARTESIAN_POINT('',(-1.980327477959,-69.97558899687,
    85.459588529169));
#155 = CARTESIAN_POINT('',(-2.441128582168,-69.96049666028,
    85.323674692016));
#156 = CARTESIAN_POINT('',(-2.88202868784,-69.94282879477,
    85.163167000292));
#157 = CARTESIAN_POINT('',(-3.299939366879,-69.92327412162,
    84.98366670538));
#158 = CARTESIAN_POINT('',(-3.978248232652,-69.88745173272,
    84.651313428632));
#159 = CARTESIAN_POINT('',(-4.254245142749,-69.87152919387,
    84.50255695744));
#160 = CARTESIAN_POINT('',(-4.520056742812,-69.85497134167,
    84.346654359291));
#161 = CARTESIAN_POINT('',(-4.776144879483,-69.83790688127,
    84.184613379315));
#162 = CARTESIAN_POINT('',(-5.023009017387,-69.82044286982,
    84.017269292217));
#163 = CARTESIAN_POINT('',(-5.261179866878,-69.8026658595,
    83.845288627342));
#164 = CARTESIAN_POINT('',(-5.491213011783,-69.7846430406,
    83.669172893752));
#165 = CARTESIAN_POINT('',(-6.519168253777,-69.70045626951,
    82.837867877067));
#166 = CARTESIAN_POINT('',(-7.236644792951,-69.63099661169,
    82.127714392503));
#167 = CARTESIAN_POINT('',(-7.87419082881,-69.56143862279,
    81.384157146088));
#168 = CARTESIAN_POINT('',(-8.441383489306,-69.49383703684,
    80.623478004178));
#169 = CARTESIAN_POINT('',(-8.948210686636,-69.42915350365,
    79.854117401803));
#170 = CARTESIAN_POINT('',(-9.404353012956,-69.36760601409,
    79.077465710697));
#171 = CARTESIAN_POINT('',(-9.818440583688,-69.30905102284,
    78.288698952157));
#172 = CARTESIAN_POINT('',(-10.61048880496,-69.19242949728,
    76.592307416467));
#173 = CARTESIAN_POINT('',(-10.97541162257,-69.13581373535,
    75.693535343875));
#174 = CARTESIAN_POINT('',(-11.29488012422,-69.08418500485,
    74.786298185612));
#175 = CARTESIAN_POINT('',(-11.57166901353,-69.03799902581,
    73.873240884787));
#176 = CARTESIAN_POINT('',(-11.80798599509,-68.99757159994,
    72.955618415373));
#177 = CARTESIAN_POINT('',(-12.0053600339,-68.96316259958,
    72.033693277708));
#178 = CARTESIAN_POINT('',(-12.1645381162,-68.93503522806,
    71.107094826729));
#179 = CARTESIAN_POINT('',(-12.49770724001,-68.87564028579,
    68.537857969436));
#180 = CARTESIAN_POINT('',(-12.58918695387,-68.8585610853,
    66.903689543405));
#181 = CARTESIAN_POINT('',(-12.56423681024,-68.86299865842,
    65.268410019235));
#182 = CARTESIAN_POINT('',(-12.41818056145,-68.89002783653,
    63.626955806519));
#183 = CARTESIAN_POINT('',(-12.13829399807,-68.94130130889,
    61.978752218536));
#184 = CARTESIAN_POINT('',(-11.70432404182,-69.01839970376,
    60.331920365112));
#185 = CARTESIAN_POINT('',(-11.08856431299,-69.12127118398,
    58.70583619567));
#186 = CARTESIAN_POINT('',(-10.06629380128,-69.27269996974,
    56.781631398519));
#187 = CARTESIAN_POINT('',(-9.863724652446,-69.30209211319,
    56.424955608062));
#188 = CARTESIAN_POINT('',(-9.648794942998,-69.33256969637,
    56.071039602912));
#189 = CARTESIAN_POINT('',(-9.420785156373,-69.36408599423,
    55.720183084272));
#190 = CARTESIAN_POINT('',(-9.178929739983,-69.3965735808,
    55.372842111326));
#191 = CARTESIAN_POINT('',(-8.922425989648,-69.42993766733,
    55.029643537137));
#192 = CARTESIAN_POINT('',(-8.650442934001,-69.46404944041,
    54.691399444545));
#193 = CARTESIAN_POINT('',(-8.362130218915,-69.49873940009,
    54.359121582064));
#194 = PCURVE('',#32,#195);
#195 = DEFINITIONAL_REPRESENTATION('',(#196),#276);
#196 = B_SPLINE_CURVE_WITH_KNOTS('',8,(#197,#198,#199,#200,#201,#202,
    #203,#204,#205,#206,#207,#208,#209,#210,#211,#212,#213,#214,#215,
    #216,#217,#218,#219,#220,#221,#222,#223,#224,#225,#226,#227,#228,
    #229,#230,#231,#232,#233,#234,#235,#236,#237,#238,#239,#240,#241,
    #242,#243,#244,#245,#246,#247,#248,#249,#250,#251,#252,#253,#254,
    #255,#256,#257,#258,#259,#260,#261,#262,#263,#264,#265,#266,#267,
    #268,#269,#270,#271,#272,#273,#274,#275),.UNSPECIFIED.,.F.,.F.,(9,7,
    7,7,7,7,7,7,7,7,7,9),(0.,5.728640451194E-02,0.170583118306,
    0.28870714473,0.347514492441,0.386690255417,0.432020132248,
    0.46518647042,0.585270385855,0.71650724027,0.947067664403,1.),
  .UNSPECIFIED.);
#197 = CARTESIAN_POINT('',(4.891923331761,66.87488656978));
#198 = CARTESIAN_POINT('',(4.891923331761,67.285443798122));
#199 = CARTESIAN_POINT('',(4.891811458173,67.695722945073));
#200 = CARTESIAN_POINT('',(4.891589300994,68.105658551512));
#201 = CARTESIAN_POINT('',(4.891258153059,68.515186995721));
#202 = CARTESIAN_POINT('',(4.890819009879,68.924246453522));
#203 = CARTESIAN_POINT('',(4.890272569486,69.332776858435));
#204 = CARTESIAN_POINT('',(4.889619232274,69.740719861818));
#205 = CARTESIAN_POINT('',(4.887355770444,70.953543783291));
#206 = CARTESIAN_POINT('',(4.885436424067,71.755630369793));
#207 = CARTESIAN_POINT('',(4.883102344196,72.554459685179));
#208 = CARTESIAN_POINT('',(4.880348448846,73.350078439783));
#209 = CARTESIAN_POINT('',(4.877163949299,74.142229971433));
#210 = CARTESIAN_POINT('',(4.873532982537,74.930187081867));
#211 = CARTESIAN_POINT('',(4.869435218386,75.712586659739));
#212 = CARTESIAN_POINT('',(4.860062147077,77.294952831064));
#213 = CARTESIAN_POINT('',(4.854788553846,78.086742421972));
#214 = CARTESIAN_POINT('',(4.84896632258,78.868763513349));
#215 = CARTESIAN_POINT('',(4.842512947014,79.644150511107));
#216 = CARTESIAN_POINT('',(4.83533223091,80.412136147529));
#217 = CARTESIAN_POINT('',(4.827321386232,81.167393053303));
#218 = CARTESIAN_POINT('',(4.818377807321,81.899386494873));
#219 = CARTESIAN_POINT('',(4.803443955526,82.936065274784));
#220 = CARTESIAN_POINT('',(4.798218882201,83.271231864981));
#221 = CARTESIAN_POINT('',(4.792687135383,83.597147858263));
#222 = CARTESIAN_POINT('',(4.78680433988,83.912528874133));
#223 = CARTESIAN_POINT('',(4.780528414714,84.214603203531));
#224 = CARTESIAN_POINT('',(4.773820978684,84.4990537585));
#225 = CARTESIAN_POINT('',(4.766648712869,84.7599572732));
#226 = CARTESIAN_POINT('',(4.753879121949,85.142782577623));
#227 = CARTESIAN_POINT('',(4.748494182507,85.283857979365));
#228 = CARTESIAN_POINT('',(4.742868019193,85.408464083597));
#229 = CARTESIAN_POINT('',(4.737037283974,85.512844956374));
#230 = CARTESIAN_POINT('',(4.731038042116,85.59395464549));
#231 = CARTESIAN_POINT('',(4.724906282286,85.649446608316));
#232 = CARTESIAN_POINT('',(4.718678017999,85.677669529664));
#233 = CARTESIAN_POINT('',(4.705111998936,85.677669529664));
#234 = CARTESIAN_POINT('',(4.697941361639,85.639883144118));
#235 = CARTESIAN_POINT('',(4.690921331896,85.566241746679));
#236 = CARTESIAN_POINT('',(4.684096310885,85.459588529169));
#237 = CARTESIAN_POINT('',(4.677510273789,85.323674692016));
#238 = CARTESIAN_POINT('',(4.671206887585,85.163167000292));
#239 = CARTESIAN_POINT('',(4.665230310412,84.98366670538));
#240 = CARTESIAN_POINT('',(4.655526680112,84.651313428632));
#241 = CARTESIAN_POINT('',(4.651577357625,84.50255695744));
#242 = CARTESIAN_POINT('',(4.64777275414,84.346654359291));
#243 = CARTESIAN_POINT('',(4.644106304593,84.184613379315));
#244 = CARTESIAN_POINT('',(4.640570915224,84.017269292217));
#245 = CARTESIAN_POINT('',(4.637159049037,83.845288627342));
#246 = CARTESIAN_POINT('',(4.633862811269,83.669172893752));
#247 = CARTESIAN_POINT('',(4.619128571041,82.837867877067));
#248 = CARTESIAN_POINT('',(4.608832113543,82.127714392503));
#249 = CARTESIAN_POINT('',(4.59967124915,81.384157146089));
#250 = CARTESIAN_POINT('',(4.591511807064,80.623478004177));
#251 = CARTESIAN_POINT('',(4.584213102464,79.854117401803));
#252 = CARTESIAN_POINT('',(4.577637963422,79.077465710697));
#253 = CARTESIAN_POINT('',(4.571663673105,78.288698952157));
#254 = CARTESIAN_POINT('',(4.560226703288,76.592307416467));
#255 = CARTESIAN_POINT('',(4.554951308661,75.693535343875));
#256 = CARTESIAN_POINT('',(4.550328395496,74.786298185612));
#257 = CARTESIAN_POINT('',(4.546319673753,73.873240884787));
#258 = CARTESIAN_POINT('',(4.542894708075,72.955618415373));
#259 = CARTESIAN_POINT('',(4.540032568734,72.033693277708));
#260 = CARTESIAN_POINT('',(4.53772336856,71.107094826729));
#261 = CARTESIAN_POINT('',(4.532888769105,68.537857969436));
#262 = CARTESIAN_POINT('',(4.531559382431,66.903689543405));
#263 = CARTESIAN_POINT('',(4.531921344887,65.268410019234));
#264 = CARTESIAN_POINT('',(4.534043369537,63.62695580652));
#265 = CARTESIAN_POINT('',(4.538108194103,61.978752218535));
#266 = CARTESIAN_POINT('',(4.544404856459,60.331920365113));
#267 = CARTESIAN_POINT('',(4.553321818335,58.70583619567));
#268 = CARTESIAN_POINT('',(4.568085035701,56.781631398519));
#269 = CARTESIAN_POINT('',(4.57100917028,56.424955608062));
#270 = CARTESIAN_POINT('',(4.574110284608,56.071039602912));
#271 = CARTESIAN_POINT('',(4.577398494633,55.720183084272));
#272 = CARTESIAN_POINT('',(4.58088454684,55.372842111326));
#273 = CARTESIAN_POINT('',(4.584579691357,55.029643537137));
#274 = CARTESIAN_POINT('',(4.588495555065,54.691399444545));
#275 = CARTESIAN_POINT('',(4.5926440147,54.359121582064));
#276 = ( GEOMETRIC_REPRESENTATION_CONTEXT(2) 
PARAMETRIC_REPRESENTATION_CONTEXT() REPRESENTATION_CONTEXT('2D SPACE',''
  ) );
#277 = PCURVE('',#278,#283);
#278 = CYLINDRICAL_SURFACE('',#279,12.5);
#279 = AXIS2_PLACEMENT_3D('',#280,#281,#282);
#280 = CARTESIAN_POINT('',(0.,-62.92893218813,60.928932188135));
#281 = DIRECTION('',(0.,-0.707106781187,0.707106781187));
#282 = DIRECTION('',(1.,0.,0.));
#283 = DEFINITIONAL_REPRESENTATION('',(#284),#364);
#284 = B_SPLINE_CURVE_WITH_KNOTS('',8,(#285,#286,#287,#288,#289,#290,
    #291,#292,#293,#294,#295,#296,#297,#298,#299,#300,#301,#302,#303,
    #304,#305,#306,#307,#308,#309,#310,#311,#312,#313,#314,#315,#316,
    #317,#318,#319,#320,#321,#322,#323,#324,#325,#326,#327,#328,#329,
    #330,#331,#332,#333,#334,#335,#336,#337,#338,#339,#340,#341,#342,
    #343,#344,#345,#346,#347,#348,#349,#350,#351,#352,#353,#354,#355,
    #356,#357,#358,#359,#360,#361,#362,#363),.UNSPECIFIED.,.F.,.F.,(9,7,
    7,7,7,7,7,7,7,7,7,9),(0.,5.728640451194E-02,0.170583118306,
    0.28870714473,0.347514492441,0.386690255417,0.432020132248,
    0.46518647042,0.585270385855,0.71650724027,0.947067664403,1.),
  .UNSPECIFIED.);
#285 = CARTESIAN_POINT('',(0.,8.408849327774));
#286 = CARTESIAN_POINT('',(2.322462401809E-02,8.699157128));
#287 = CARTESIAN_POINT('',(4.635440958911E-02,8.990257153142));
#288 = CARTESIAN_POINT('',(6.940586947137E-02,9.282088979501));
#289 = CARTESIAN_POINT('',(9.239502749429E-02,9.574592844582));
#290 = CARTESIAN_POINT('',(0.115337652972,9.867709687792));
#291 = CARTESIAN_POINT('',(0.138249495116,10.161381191144));
#292 = CARTESIAN_POINT('',(0.16114651745,10.455549819966));
#293 = CARTESIAN_POINT('',(0.229332278904,11.332814325786));
#294 = CARTESIAN_POINT('',(0.2745740304,11.916527631434));
#295 = CARTESIAN_POINT('',(0.319931398988,12.501293642973));
#296 = CARTESIAN_POINT('',(0.36556318309,13.087021117587));
#297 = CARTESIAN_POINT('',(0.41162532277,13.673402637404));
#298 = CARTESIAN_POINT('',(0.458271814058,14.259779246364));
#299 = CARTESIAN_POINT('',(0.50565718209,14.844999793757));
#300 = CARTESIAN_POINT('',(0.604281085861,16.034359582953));
#301 = CARTESIAN_POINT('',(0.655130061167,16.63260130129));
#302 = CARTESIAN_POINT('',(0.70715409401,17.226321548826));
#303 = CARTESIAN_POINT('',(0.760959407253,17.817739105449));
#304 = CARTESIAN_POINT('',(0.817085484451,18.406173664542));
#305 = CARTESIAN_POINT('',(0.876013238376,18.987404711175));
#306 = CARTESIAN_POINT('',(0.938188766012,19.553040441077));
#307 = CARTESIAN_POINT('',(1.036859297091,20.356949814541));
#308 = CARTESIAN_POINT('',(1.070618029436,20.617356285043));
#309 = CARTESIAN_POINT('',(1.105613856266,20.871032126931));
#310 = CARTESIAN_POINT('',(1.142091718088,21.116934800352));
#311 = CARTESIAN_POINT('',(1.180269341371,21.352852441024));
#312 = CARTESIAN_POINT('',(1.220342404163,21.575344142582));
#313 = CARTESIAN_POINT('',(1.262493163397,21.779686016414));
#314 = CARTESIAN_POINT('',(1.336486795386,22.079825123649));
#315 = CARTESIAN_POINT('',(1.36742773155,22.190522642215));
#316 = CARTESIAN_POINT('',(1.399500589436,22.288375449168));
#317 = CARTESIAN_POINT('',(1.432513295171,22.370400096682));
#318 = CARTESIAN_POINT('',(1.466297156354,22.434167986272));
#319 = CARTESIAN_POINT('',(1.500699422877,22.477806056967));
#320 = CARTESIAN_POINT('',(1.535577716157,22.5));
#321 = CARTESIAN_POINT('',(1.611547422909,22.5));
#322 = CARTESIAN_POINT('',(1.651703018324,22.470285585424));
#323 = CARTESIAN_POINT('',(1.691114956348,22.412374945202));
#324 = CARTESIAN_POINT('',(1.729622335544,22.328532259856));
#325 = CARTESIAN_POINT('',(1.767046972986,22.2217547704));
#326 = CARTESIAN_POINT('',(1.803185691129,22.095765625639));
#327 = CARTESIAN_POINT('',(1.837799428293,21.955012507897));
#328 = CARTESIAN_POINT('',(1.894597636778,21.694672998045));
#329 = CARTESIAN_POINT('',(1.917911740578,21.578227353325));
#330 = CARTESIAN_POINT('',(1.940577119531,21.4562793994));
#331 = CARTESIAN_POINT('',(1.96263049986,21.329632727963));
#332 = CARTESIAN_POINT('',(1.984110152338,21.198953668259));
#333 = CARTESIAN_POINT('',(2.00505634597,21.064774729351));
#334 = CARTESIAN_POINT('',(2.025511801673,20.927498042393));
#335 = CARTESIAN_POINT('',(2.117972727595,20.280147591138));
#336 = CARTESIAN_POINT('',(2.185590261796,19.728877851454));
#337 = CARTESIAN_POINT('',(2.248960727748,19.153918554678));
#338 = CARTESIAN_POINT('',(2.308654114663,18.568235635277));
#339 = CARTESIAN_POINT('',(2.365297565503,17.978477371212));
#340 = CARTESIAN_POINT('',(2.419622067023,17.385781046579));
#341 = CARTESIAN_POINT('',(2.472479031134,16.786634091457));
#342 = CARTESIAN_POINT('',(2.58202871381,15.504640261466));
#343 = CARTESIAN_POINT('',(2.637776684449,14.829079045011));
#344 = CARTESIAN_POINT('',(2.692326849776,14.151058472819));
#345 = CARTESIAN_POINT('',(2.745932031592,13.472771044821));
#346 = CARTESIAN_POINT('',(2.798844406603,12.795327467149));
#347 = CARTESIAN_POINT('',(2.8513201628,12.11909711307));
#348 = CARTESIAN_POINT('',(2.903622453764,11.444004009807));
#349 = CARTESIAN_POINT('',(3.048080721992,9.585280639098));
#350 = CARTESIAN_POINT('',(3.139337201068,8.417672244962));
#351 = CARTESIAN_POINT('',(3.231319853554,7.264492842344));
#352 = CARTESIAN_POINT('',(3.325411523987,6.122921952627));
#353 = CARTESIAN_POINT('',(3.422927648118,4.993721838817));
#354 = CARTESIAN_POINT('',(3.52519217071,3.883752665602));
#355 = CARTESIAN_POINT('',(3.633602817306,2.806678643869));
#356 = CARTESIAN_POINT('',(3.776692481712,1.553136704695));
#357 = CARTESIAN_POINT('',(3.803875282555,1.321712218524));
#358 = CARTESIAN_POINT('',(3.831574751023,1.093006717051));
#359 = CARTESIAN_POINT('',(3.859840852572,0.867199081429));
#360 = CARTESIAN_POINT('',(3.888723139114,0.644564116843));
#361 = CARTESIAN_POINT('',(3.918271215887,0.425478049576));
#362 = CARTESIAN_POINT('',(3.948535208336,0.210424024072));
#363 = CARTESIAN_POINT('',(3.979566228988,-2.4E-06));
#364 = ( GEOMETRIC_REPRESENTATION_CONTEXT(2) 
PARAMETRIC_REPRESENTATION_CONTEXT() REPRESENTATION_CONTEXT('2D SPACE',''
  ) );
#365 = ORIENTED_EDGE('',*,*,#366,.F.);
#366 = EDGE_CURVE('',#367,#109,#369,.T.);
#367 = VERTEX_POINT('',#368);
#368 = CARTESIAN_POINT('',(8.362133507238,-69.49873900443,54.35912537183
    ));
#369 = SURFACE_CURVE('',#370,(#385,#403),.PCURVE_S1.);
#370 = B_SPLINE_CURVE_WITH_KNOTS('',7,(#371,#372,#373,#374,#375,#376,
    #377,#378,#379,#380,#381,#382,#383,#384),.UNSPECIFIED.,.F.,.F.,(8,6,
    8),(0.,0.528837524779,1.),.UNSPECIFIED.);
#371 = CARTESIAN_POINT('',(8.362130218915,-69.49873940009,
    54.359121582064));
#372 = CARTESIAN_POINT('',(9.1042756739,-69.40944401157,55.214437676458)
  );
#373 = CARTESIAN_POINT('',(9.738812227956,-69.32371612477,
    56.113389528469));
#374 = CARTESIAN_POINT('',(10.27860446505,-69.24485596318,
    57.036694904195));
#375 = CARTESIAN_POINT('',(10.736107908508,-69.17421747897,
    57.973283913563));
#376 = CARTESIAN_POINT('',(11.122027470289,-69.11213517302,
    58.917756088081));
#377 = CARTESIAN_POINT('',(11.444975528768,-69.05856405972,
    59.869582225981));
#378 = CARTESIAN_POINT('',(11.947763247557,-68.97324617856,
    61.689325411359));
#379 = CARTESIAN_POINT('',(12.138412182124,-68.93991911074,
    62.551607428001));
#380 = CARTESIAN_POINT('',(12.286351438062,-68.91354652821,
    63.416166985925));
#381 = CARTESIAN_POINT('',(12.394502680304,-68.89403331063,
    64.281387132486));
#382 = CARTESIAN_POINT('',(12.465165481508,-68.88120855436,
    65.146410118453));
#383 = CARTESIAN_POINT('',(12.5,-68.87488656978,66.010912158756));
#384 = CARTESIAN_POINT('',(12.5,-68.87488656978,66.87488656978));
#385 = PCURVE('',#32,#386);
#386 = DEFINITIONAL_REPRESENTATION('',(#387),#402);
#387 = B_SPLINE_CURVE_WITH_KNOTS('',7,(#388,#389,#390,#391,#392,#393,
    #394,#395,#396,#397,#398,#399,#400,#401),.UNSPECIFIED.,.F.,.F.,(8,6,
    8),(0.,0.528837524779,1.),.UNSPECIFIED.);
#388 = CARTESIAN_POINT('',(4.832133946069,54.359121582064));
#389 = CARTESIAN_POINT('',(4.842812491628,55.214437676458));
#390 = CARTESIAN_POINT('',(4.851958688187,56.113389528468));
#391 = CARTESIAN_POINT('',(4.859751349237,57.036694904196));
#392 = CARTESIAN_POINT('',(4.86636427185,57.973283913562));
#393 = CARTESIAN_POINT('',(4.871948180931,58.917756088081));
#394 = CARTESIAN_POINT('',(4.876624735725,59.869582225981));
#395 = CARTESIAN_POINT('',(4.883910094694,61.689325411359));
#396 = CARTESIAN_POINT('',(4.886674917515,62.551607428001));
#397 = CARTESIAN_POINT('',(4.888821643097,63.416166985925));
#398 = CARTESIAN_POINT('',(4.890391608496,64.281387132486));
#399 = CARTESIAN_POINT('',(4.891417566258,65.146410118453));
#400 = CARTESIAN_POINT('',(4.891923331761,66.010912158756));
#401 = CARTESIAN_POINT('',(4.891923331761,66.87488656978));
#402 = ( GEOMETRIC_REPRESENTATION_CONTEXT(2) 
PARAMETRIC_REPRESENTATION_CONTEXT() REPRESENTATION_CONTEXT('2D SPACE',''
  ) );
#403 = PCURVE('',#278,#404);
#404 = DEFINITIONAL_REPRESENTATION('',(#405),#420);
#405 = B_SPLINE_CURVE_WITH_KNOTS('',7,(#406,#407,#408,#409,#410,#411,
    #412,#413,#414,#415,#416,#417,#418,#419),.UNSPECIFIED.,.F.,.F.,(8,6,
    8),(0.,0.528837524779,1.),.UNSPECIFIED.);
#406 = CARTESIAN_POINT('',(5.445211731781,-2.4E-06));
#407 = CARTESIAN_POINT('',(5.525088649225,0.541656035657));
#408 = CARTESIAN_POINT('',(5.600083188287,1.11669221608));
#409 = CARTESIAN_POINT('',(5.670937438387,1.713805153337));
#410 = CARTESIAN_POINT('',(5.738299177196,2.326124641844));
#411 = CARTESIAN_POINT('',(5.802807727312,2.950068501557));
#412 = CARTESIAN_POINT('',(5.865125304212,3.58523072069));
#413 = CARTESIAN_POINT('',(5.980153629734,4.811654614761));
#414 = CARTESIAN_POINT('',(6.032951867193,5.397814280373));
#415 = CARTESIAN_POINT('',(6.084567205182,5.990501974578));
#416 = CARTESIAN_POINT('',(6.135201177732,6.588507078955));
#417 = CARTESIAN_POINT('',(6.185050232004,7.191102226088));
#418 = CARTESIAN_POINT('',(6.234311533995,7.797927162967));
#419 = CARTESIAN_POINT('',(6.28318530718,8.408849327774));
#420 = ( GEOMETRIC_REPRESENTATION_CONTEXT(2) 
PARAMETRIC_REPRESENTATION_CONTEXT() REPRESENTATION_CONTEXT('2D SPACE',''
  ) );
#421 = ORIENTED_EDGE('',*,*,#422,.F.);
#422 = EDGE_CURVE('',#111,#367,#423,.T.);
#423 = SURFACE_CURVE('',#424,(#429,#440),.PCURVE_S1.);
#424 = ELLIPSE('',#425,98.994949366117,70.);
#425 = AXIS2_PLACEMENT_3D('',#426,#427,#428);
#426 = CARTESIAN_POINT('',(0.,0.,123.85786437626));
#427 = DIRECTION('',(0.,-0.707106781187,0.707106781187));
#428 = DIRECTION('',(0.,0.707106781187,0.707106781187));
#429 = PCURVE('',#32,#430);
#430 = DEFINITIONAL_REPRESENTATION('',(#431),#439);
#431 = B_SPLINE_CURVE_WITH_KNOTS('',6,(#432,#433,#434,#435,#436,#437,
    #438),.UNSPECIFIED.,.F.,.F.,(7,7),(2.925632154905,3.357553152275),
  .PIECEWISE_BEZIER_KNOTS.);
#432 = CARTESIAN_POINT('',(4.4964284817,55.483892720382));
#433 = CARTESIAN_POINT('',(4.568415314595,54.404090226958));
#434 = CARTESIAN_POINT('',(4.64040214749,53.749472985419));
#435 = CARTESIAN_POINT('',(4.712388980385,53.530113118434));
#436 = CARTESIAN_POINT('',(4.78437581328,53.749472985419));
#437 = CARTESIAN_POINT('',(4.856362646175,54.404090226958));
#438 = CARTESIAN_POINT('',(4.92834947907,55.483892720382));
#439 = ( GEOMETRIC_REPRESENTATION_CONTEXT(2) 
PARAMETRIC_REPRESENTATION_CONTEXT() REPRESENTATION_CONTEXT('2D SPACE',''
  ) );
#440 = PCURVE('',#441,#446);
#441 = PLANE('',#442);
#442 = AXIS2_PLACEMENT_3D('',#443,#444,#445);
#443 = CARTESIAN_POINT('',(0.,-62.92893218813,60.928932188135));
#444 = DIRECTION('',(0.,-0.707106781187,0.707106781187));
#445 = DIRECTION('',(1.,0.,0.));
#446 = DEFINITIONAL_REPRESENTATION('',(#447),#451);
#447 = ELLIPSE('',#448,98.994949366117,70.);
#448 = AXIS2_PLACEMENT_2D('',#449,#450);
#449 = CARTESIAN_POINT('',(0.,88.994949366117));
#450 = DIRECTION('',(0.,1.));
#451 = ( GEOMETRIC_REPRESENTATION_CONTEXT(2) 
PARAMETRIC_REPRESENTATION_CONTEXT() REPRESENTATION_CONTEXT('2D SPACE',''
  ) );
#452 = ADVANCED_FACE('',(#453),#94,.F.);
#453 = FACE_BOUND('',#454,.T.);
#454 = EDGE_LOOP('',(#455));
#455 = ORIENTED_EDGE('',*,*,#79,.F.);
#456 = ADVANCED_FACE('',(#457,#460),#66,.T.);
#457 = FACE_BOUND('',#458,.T.);
#458 = EDGE_LOOP('',(#459));
#459 = ORIENTED_EDGE('',*,*,#51,.T.);
#460 = FACE_BOUND('',#461,.T.);
#461 = EDGE_LOOP('',(#462));
#462 = ORIENTED_EDGE('',*,*,#463,.F.);
#463 = EDGE_CURVE('',#464,#464,#466,.T.);
#464 = VERTEX_POINT('',#465);
#465 = CARTESIAN_POINT('',(68.,-1.66551964684E-14,90.));
#466 = SURFACE_CURVE('',#467,(#472,#479),.PCURVE_S1.);
#467 = CIRCLE('',#468,68.);
#468 = AXIS2_PLACEMENT_3D('',#469,#470,#471);
#469 = CARTESIAN_POINT('',(0.,0.,90.));
#470 = DIRECTION('',(0.,0.,1.));
#471 = DIRECTION('',(1.,0.,-0.));
#472 = PCURVE('',#66,#473);
#473 = DEFINITIONAL_REPRESENTATION('',(#474),#478);
#474 = CIRCLE('',#475,68.);
#475 = AXIS2_PLACEMENT_2D('',#476,#477);
#476 = CARTESIAN_POINT('',(0.,0.));
#477 = DIRECTION('',(1.,0.));
#478 = ( GEOMETRIC_REPRESENTATION_CONTEXT(2) 
PARAMETRIC_REPRESENTATION_CONTEXT() REPRESENTATION_CONTEXT('2D SPACE',''
  ) );
#479 = PCURVE('',#480,#485);
#480 = CYLINDRICAL_SURFACE('',#481,68.);
#481 = AXIS2_PLACEMENT_3D('',#482,#483,#484);
#482 = CARTESIAN_POINT('',(0.,0.,90.));
#483 = DIRECTION('',(0.,0.,1.));
#484 = DIRECTION('',(1.,0.,-0.));
#485 = DEFINITIONAL_REPRESENTATION('',(#486),#490);
#486 = LINE('',#487,#488);
#487 = CARTESIAN_POINT('',(0.,0.));
#488 = VECTOR('',#489,1.);
#489 = DIRECTION('',(1.,0.));
#490 = ( GEOMETRIC_REPRESENTATION_CONTEXT(2) 
PARAMETRIC_REPRESENTATION_CONTEXT() REPRESENTATION_CONTEXT('2D SPACE',''
  ) );
#491 = ADVANCED_FACE('',(#492),#278,.T.);
#492 = FACE_BOUND('',#493,.T.);
#493 = EDGE_LOOP('',(#494,#517,#544,#545,#546,#568));
#494 = ORIENTED_EDGE('',*,*,#495,.T.);
#495 = EDGE_CURVE('',#109,#496,#498,.T.);
#496 = VERTEX_POINT('',#497);
#497 = CARTESIAN_POINT('',(12.5,-85.5563491861,83.556349186104));
#498 = SEAM_CURVE('',#499,(#503,#510),.PCURVE_S1.);
#499 = LINE('',#500,#501);
#500 = CARTESIAN_POINT('',(12.5,-62.92893218813,60.928932188135));
#501 = VECTOR('',#502,1.);
#502 = DIRECTION('',(0.,-0.707106781187,0.707106781187));
#503 = PCURVE('',#278,#504);
#504 = DEFINITIONAL_REPRESENTATION('',(#505),#509);
#505 = LINE('',#506,#507);
#506 = CARTESIAN_POINT('',(6.28318530718,-0.));
#507 = VECTOR('',#508,1.);
#508 = DIRECTION('',(0.,1.));
#509 = ( GEOMETRIC_REPRESENTATION_CONTEXT(2) 
PARAMETRIC_REPRESENTATION_CONTEXT() REPRESENTATION_CONTEXT('2D SPACE',''
  ) );
#510 = PCURVE('',#278,#511);
#511 = DEFINITIONAL_REPRESENTATION('',(#512),#516);
#512 = LINE('',#513,#514);
#513 = CARTESIAN_POINT('',(0.,-0.));
#514 = VECTOR('',#515,1.);
#515 = DIRECTION('',(0.,1.));
#516 = ( GEOMETRIC_REPRESENTATION_CONTEXT(2) 
PARAMETRIC_REPRESENTATION_CONTEXT() REPRESENTATION_CONTEXT('2D SPACE',''
  ) );
#517 = ORIENTED_EDGE('',*,*,#518,.F.);
#518 = EDGE_CURVE('',#496,#496,#519,.T.);
#519 = SURFACE_CURVE('',#520,(#525,#532),.PCURVE_S1.);
#520 = CIRCLE('',#521,12.5);
#521 = AXIS2_PLACEMENT_3D('',#522,#523,#524);
#522 = CARTESIAN_POINT('',(0.,-85.5563491861,83.556349186104));
#523 = DIRECTION('',(0.,-0.707106781187,0.707106781187));
#524 = DIRECTION('',(1.,0.,0.));
#525 = PCURVE('',#278,#526);
#526 = DEFINITIONAL_REPRESENTATION('',(#527),#531);
#527 = LINE('',#528,#529);
#528 = CARTESIAN_POINT('',(0.,32.));
#529 = VECTOR('',#530,1.);
#530 = DIRECTION('',(1.,0.));
#531 = ( GEOMETRIC_REPRESENTATION_CONTEXT(2) 
PARAMETRIC_REPRESENTATION_CONTEXT() REPRESENTATION_CONTEXT('2D SPACE',''
  ) );
#532 = PCURVE('',#533,#538);
#533 = PLANE('',#534);
#534 = AXIS2_PLACEMENT_3D('',#535,#536,#537);
#535 = CARTESIAN_POINT('',(0.,-85.5563491861,83.556349186104));
#536 = DIRECTION('',(0.,-0.707106781187,0.707106781187));
#537 = DIRECTION('',(1.,0.,0.));
#538 = DEFINITIONAL_REPRESENTATION('',(#539),#543);
#539 = CIRCLE('',#540,12.5);
#540 = AXIS2_PLACEMENT_2D('',#541,#542);
#541 = CARTESIAN_POINT('',(0.,0.));
#542 = DIRECTION('',(1.,0.));
#543 = ( GEOMETRIC_REPRESENTATION_CONTEXT(2) 
PARAMETRIC_REPRESENTATION_CONTEXT() REPRESENTATION_CONTEXT('2D SPACE',''
  ) );
#544 = ORIENTED_EDGE('',*,*,#495,.F.);
#545 = ORIENTED_EDGE('',*,*,#108,.T.);
#546 = ORIENTED_EDGE('',*,*,#547,.T.);
#547 = EDGE_CURVE('',#111,#367,#548,.T.);
#548 = SURFACE_CURVE('',#549,(#554,#561),.PCURVE_S1.);
#549 = CIRCLE('',#550,12.5);
#550 = AXIS2_PLACEMENT_3D('',#551,#552,#553);
#551 = CARTESIAN_POINT('',(0.,-62.92893218813,60.928932188135));
#552 = DIRECTION('',(0.,-0.707106781187,0.707106781187));
#553 = DIRECTION('',(1.,0.,0.));
#554 = PCURVE('',#278,#555);
#555 = DEFINITIONAL_REPRESENTATION('',(#556),#560);
#556 = LINE('',#557,#558);
#557 = CARTESIAN_POINT('',(0.,0.));
#558 = VECTOR('',#559,1.);
#559 = DIRECTION('',(1.,0.));
#560 = ( GEOMETRIC_REPRESENTATION_CONTEXT(2) 
PARAMETRIC_REPRESENTATION_CONTEXT() REPRESENTATION_CONTEXT('2D SPACE',''
  ) );
#561 = PCURVE('',#441,#562);
#562 = DEFINITIONAL_REPRESENTATION('',(#563),#567);
#563 = CIRCLE('',#564,12.5);
#564 = AXIS2_PLACEMENT_2D('',#565,#566);
#565 = CARTESIAN_POINT('',(0.,0.));
#566 = DIRECTION('',(1.,0.));
#567 = ( GEOMETRIC_REPRESENTATION_CONTEXT(2) 
PARAMETRIC_REPRESENTATION_CONTEXT() REPRESENTATION_CONTEXT('2D SPACE',''
  ) );
#568 = ORIENTED_EDGE('',*,*,#366,.T.);
#569 = ADVANCED_FACE('',(#570),#441,.F.);
#570 = FACE_BOUND('',#571,.F.);
#571 = EDGE_LOOP('',(#572,#573));
#572 = ORIENTED_EDGE('',*,*,#422,.F.);
#573 = ORIENTED_EDGE('',*,*,#547,.T.);
#574 = ADVANCED_FACE('',(#575),#480,.T.);
#575 = FACE_BOUND('',#576,.T.);
#576 = EDGE_LOOP('',(#577,#606,#627,#628));
#577 = ORIENTED_EDGE('',*,*,#578,.F.);
#578 = EDGE_CURVE('',#579,#579,#581,.T.);
#579 = VERTEX_POINT('',#580);
#580 = CARTESIAN_POINT('',(68.,-1.66551964684E-14,96.));
#581 = SURFACE_CURVE('',#582,(#587,#594),.PCURVE_S1.);
#582 = CIRCLE('',#583,68.);
#583 = AXIS2_PLACEMENT_3D('',#584,#585,#586);
#584 = CARTESIAN_POINT('',(0.,0.,96.));
#585 = DIRECTION('',(0.,0.,1.));
#586 = DIRECTION('',(1.,0.,-0.));
#587 = PCURVE('',#480,#588);
#588 = DEFINITIONAL_REPRESENTATION('',(#589),#593);
#589 = LINE('',#590,#591);
#590 = CARTESIAN_POINT('',(0.,6.));
#591 = VECTOR('',#592,1.);
#592 = DIRECTION('',(1.,0.));
#593 = ( GEOMETRIC_REPRESENTATION_CONTEXT(2) 
PARAMETRIC_REPRESENTATION_CONTEXT() REPRESENTATION_CONTEXT('2D SPACE',''
  ) );
#594 = PCURVE('',#595,#600);
#595 = PLANE('',#596);
#596 = AXIS2_PLACEMENT_3D('',#597,#598,#599);
#597 = CARTESIAN_POINT('',(0.,0.,96.));
#598 = DIRECTION('',(0.,0.,1.));
#599 = DIRECTION('',(1.,0.,-0.));
#600 = DEFINITIONAL_REPRESENTATION('',(#601),#605);
#601 = CIRCLE('',#602,68.);
#602 = AXIS2_PLACEMENT_2D('',#603,#604);
#603 = CARTESIAN_POINT('',(0.,0.));
#604 = DIRECTION('',(1.,0.));
#605 = ( GEOMETRIC_REPRESENTATION_CONTEXT(2) 
PARAMETRIC_REPRESENTATION_CONTEXT() REPRESENTATION_CONTEXT('2D SPACE',''
  ) );
#606 = ORIENTED_EDGE('',*,*,#607,.F.);
#607 = EDGE_CURVE('',#464,#579,#608,.T.);
#608 = SEAM_CURVE('',#609,(#613,#620),.PCURVE_S1.);
#609 = LINE('',#610,#611);
#610 = CARTESIAN_POINT('',(68.,-1.66551964684E-14,90.));
#611 = VECTOR('',#612,1.);
#612 = DIRECTION('',(0.,0.,1.));
#613 = PCURVE('',#480,#614);
#614 = DEFINITIONAL_REPRESENTATION('',(#615),#619);
#615 = LINE('',#616,#617);
#616 = CARTESIAN_POINT('',(6.28318530718,-0.));
#617 = VECTOR('',#618,1.);
#618 = DIRECTION('',(0.,1.));
#619 = ( GEOMETRIC_REPRESENTATION_CONTEXT(2) 
PARAMETRIC_REPRESENTATION_CONTEXT() REPRESENTATION_CONTEXT('2D SPACE',''
  ) );
#620 = PCURVE('',#480,#621);
#621 = DEFINITIONAL_REPRESENTATION('',(#622),#626);
#622 = LINE('',#623,#624);
#623 = CARTESIAN_POINT('',(0.,-0.));
#624 = VECTOR('',#625,1.);
#625 = DIRECTION('',(0.,1.));
#626 = ( GEOMETRIC_REPRESENTATION_CONTEXT(2) 
PARAMETRIC_REPRESENTATION_CONTEXT() REPRESENTATION_CONTEXT('2D SPACE',''
  ) );
#627 = ORIENTED_EDGE('',*,*,#463,.T.);
#628 = ORIENTED_EDGE('',*,*,#607,.T.);
#629 = ADVANCED_FACE('',(#630,#633),#533,.T.);
#630 = FACE_BOUND('',#631,.T.);
#631 = EDGE_LOOP('',(#632));
#632 = ORIENTED_EDGE('',*,*,#518,.T.);
#633 = FACE_BOUND('',#634,.T.);
#634 = EDGE_LOOP('',(#635));
#635 = ORIENTED_EDGE('',*,*,#636,.F.);
#636 = EDGE_CURVE('',#637,#637,#639,.T.);
#637 = VERTEX_POINT('',#638);
#638 = CARTESIAN_POINT('',(11.,-85.5563491861,83.556349186104));
#639 = SURFACE_CURVE('',#640,(#645,#652),.PCURVE_S1.);
#640 = CIRCLE('',#641,11.);
#641 = AXIS2_PLACEMENT_3D('',#642,#643,#644);
#642 = CARTESIAN_POINT('',(0.,-85.5563491861,83.556349186104));
#643 = DIRECTION('',(0.,-0.707106781187,0.707106781187));
#644 = DIRECTION('',(1.,0.,0.));
#645 = PCURVE('',#533,#646);
#646 = DEFINITIONAL_REPRESENTATION('',(#647),#651);
#647 = CIRCLE('',#648,11.);
#648 = AXIS2_PLACEMENT_2D('',#649,#650);
#649 = CARTESIAN_POINT('',(0.,4.410452489428E-15));
#650 = DIRECTION('',(1.,0.));
#651 = ( GEOMETRIC_REPRESENTATION_CONTEXT(2) 
PARAMETRIC_REPRESENTATION_CONTEXT() REPRESENTATION_CONTEXT('2D SPACE',''
  ) );
#652 = PCURVE('',#653,#658);
#653 = CONICAL_SURFACE('',#654,8.,0.785398163397);
#654 = AXIS2_PLACEMENT_3D('',#655,#656,#657);
#655 = CARTESIAN_POINT('',(0.,-83.43502884254,81.435028842544));
#656 = DIRECTION('',(0.,-0.707106781187,0.707106781187));
#657 = DIRECTION('',(1.,0.,0.));
#658 = DEFINITIONAL_REPRESENTATION('',(#659),#663);
#659 = LINE('',#660,#661);
#660 = CARTESIAN_POINT('',(0.,3.));
#661 = VECTOR('',#662,1.);
#662 = DIRECTION('',(1.,0.));
#663 = ( GEOMETRIC_REPRESENTATION_CONTEXT(2) 
PARAMETRIC_REPRESENTATION_CONTEXT() REPRESENTATION_CONTEXT('2D SPACE',''
  ) );
#664 = ADVANCED_FACE('',(#665,#668),#595,.T.);
#665 = FACE_BOUND('',#666,.T.);
#666 = EDGE_LOOP('',(#667));
#667 = ORIENTED_EDGE('',*,*,#578,.T.);
#668 = FACE_BOUND('',#669,.T.);
#669 = EDGE_LOOP('',(#670));
#670 = ORIENTED_EDGE('',*,*,#671,.F.);
#671 = EDGE_CURVE('',#672,#672,#674,.T.);
#672 = VERTEX_POINT('',#673);
#673 = CARTESIAN_POINT('',(67.,-1.641026710857E-14,96.));
#674 = SURFACE_CURVE('',#675,(#680,#687),.PCURVE_S1.);
#675 = CIRCLE('',#676,67.);
#676 = AXIS2_PLACEMENT_3D('',#677,#678,#679);
#677 = CARTESIAN_POINT('',(0.,0.,96.));
#678 = DIRECTION('',(0.,0.,1.));
#679 = DIRECTION('',(1.,0.,-0.));
#680 = PCURVE('',#595,#681);
#681 = DEFINITIONAL_REPRESENTATION('',(#682),#686);
#682 = CIRCLE('',#683,67.);
#683 = AXIS2_PLACEMENT_2D('',#684,#685);
#684 = CARTESIAN_POINT('',(0.,0.));
#685 = DIRECTION('',(1.,0.));
#686 = ( GEOMETRIC_REPRESENTATION_CONTEXT(2) 
PARAMETRIC_REPRESENTATION_CONTEXT() REPRESENTATION_CONTEXT('2D SPACE',''
  ) );
#687 = PCURVE('',#688,#693);
#688 = CYLINDRICAL_SURFACE('',#689,67.);
#689 = AXIS2_PLACEMENT_3D('',#690,#691,#692);
#690 = CARTESIAN_POINT('',(0.,0.,3.));
#691 = DIRECTION('',(0.,0.,1.));
#692 = DIRECTION('',(1.,0.,-0.));
#693 = DEFINITIONAL_REPRESENTATION('',(#694),#698);
#694 = LINE('',#695,#696);
#695 = CARTESIAN_POINT('',(0.,93.));
#696 = VECTOR('',#697,1.);
#697 = DIRECTION('',(1.,0.));
#698 = ( GEOMETRIC_REPRESENTATION_CONTEXT(2) 
PARAMETRIC_REPRESENTATION_CONTEXT() REPRESENTATION_CONTEXT('2D SPACE',''
  ) );
#699 = ADVANCED_FACE('',(#700),#653,.F.);
#700 = FACE_BOUND('',#701,.F.);
#701 = EDGE_LOOP('',(#702,#703,#726,#753));
#702 = ORIENTED_EDGE('',*,*,#636,.F.);
#703 = ORIENTED_EDGE('',*,*,#704,.F.);
#704 = EDGE_CURVE('',#705,#637,#707,.T.);
#705 = VERTEX_POINT('',#706);
#706 = CARTESIAN_POINT('',(8.,-83.43502884254,81.435028842544));
#707 = SEAM_CURVE('',#708,(#712,#719),.PCURVE_S1.);
#708 = LINE('',#709,#710);
#709 = CARTESIAN_POINT('',(8.,-83.43502884254,81.435028842544));
#710 = VECTOR('',#711,1.);
#711 = DIRECTION('',(0.707106781187,-0.5,0.5));
#712 = PCURVE('',#653,#713);
#713 = DEFINITIONAL_REPRESENTATION('',(#714),#718);
#714 = LINE('',#715,#716);
#715 = CARTESIAN_POINT('',(6.28318530718,-0.));
#716 = VECTOR('',#717,1.);
#717 = DIRECTION('',(0.,1.));
#718 = ( GEOMETRIC_REPRESENTATION_CONTEXT(2) 
PARAMETRIC_REPRESENTATION_CONTEXT() REPRESENTATION_CONTEXT('2D SPACE',''
  ) );
#719 = PCURVE('',#653,#720);
#720 = DEFINITIONAL_REPRESENTATION('',(#721),#725);
#721 = LINE('',#722,#723);
#722 = CARTESIAN_POINT('',(0.,-0.));
#723 = VECTOR('',#724,1.);
#724 = DIRECTION('',(0.,1.));
#725 = ( GEOMETRIC_REPRESENTATION_CONTEXT(2) 
PARAMETRIC_REPRESENTATION_CONTEXT() REPRESENTATION_CONTEXT('2D SPACE',''
  ) );
#726 = ORIENTED_EDGE('',*,*,#727,.T.);
#727 = EDGE_CURVE('',#705,#705,#728,.T.);
#728 = SURFACE_CURVE('',#729,(#734,#741),.PCURVE_S1.);
#729 = CIRCLE('',#730,8.);
#730 = AXIS2_PLACEMENT_3D('',#731,#732,#733);
#731 = CARTESIAN_POINT('',(0.,-83.43502884254,81.435028842544));
#732 = DIRECTION('',(0.,-0.707106781187,0.707106781187));
#733 = DIRECTION('',(1.,0.,0.));
#734 = PCURVE('',#653,#735);
#735 = DEFINITIONAL_REPRESENTATION('',(#736),#740);
#736 = LINE('',#737,#738);
#737 = CARTESIAN_POINT('',(0.,0.));
#738 = VECTOR('',#739,1.);
#739 = DIRECTION('',(1.,0.));
#740 = ( GEOMETRIC_REPRESENTATION_CONTEXT(2) 
PARAMETRIC_REPRESENTATION_CONTEXT() REPRESENTATION_CONTEXT('2D SPACE',''
  ) );
#741 = PCURVE('',#742,#747);
#742 = CYLINDRICAL_SURFACE('',#743,8.);
#743 = AXIS2_PLACEMENT_3D('',#744,#745,#746);
#744 = CARTESIAN_POINT('',(0.,-61.51471862576,59.514718625761));
#745 = DIRECTION('',(0.,-0.707106781187,0.707106781187));
#746 = DIRECTION('',(1.,0.,0.));
#747 = DEFINITIONAL_REPRESENTATION('',(#748),#752);
#748 = LINE('',#749,#750);
#749 = CARTESIAN_POINT('',(0.,31.));
#750 = VECTOR('',#751,1.);
#751 = DIRECTION('',(1.,0.));
#752 = ( GEOMETRIC_REPRESENTATION_CONTEXT(2) 
PARAMETRIC_REPRESENTATION_CONTEXT() REPRESENTATION_CONTEXT('2D SPACE',''
  ) );
#753 = ORIENTED_EDGE('',*,*,#704,.T.);
#754 = ADVANCED_FACE('',(#755),#688,.F.);
#755 = FACE_BOUND('',#756,.F.);
#756 = EDGE_LOOP('',(#757,#780,#781,#782));
#757 = ORIENTED_EDGE('',*,*,#758,.T.);
#758 = EDGE_CURVE('',#759,#672,#761,.T.);
#759 = VERTEX_POINT('',#760);
#760 = CARTESIAN_POINT('',(67.,-1.641026710857E-14,82.));
#761 = SEAM_CURVE('',#762,(#766,#773),.PCURVE_S1.);
#762 = LINE('',#763,#764);
#763 = CARTESIAN_POINT('',(67.,-1.641026710857E-14,3.));
#764 = VECTOR('',#765,1.);
#765 = DIRECTION('',(0.,0.,1.));
#766 = PCURVE('',#688,#767);
#767 = DEFINITIONAL_REPRESENTATION('',(#768),#772);
#768 = LINE('',#769,#770);
#769 = CARTESIAN_POINT('',(6.28318530718,-0.));
#770 = VECTOR('',#771,1.);
#771 = DIRECTION('',(0.,1.));
#772 = ( GEOMETRIC_REPRESENTATION_CONTEXT(2) 
PARAMETRIC_REPRESENTATION_CONTEXT() REPRESENTATION_CONTEXT('2D SPACE',''
  ) );
#773 = PCURVE('',#688,#774);
#774 = DEFINITIONAL_REPRESENTATION('',(#775),#779);
#775 = LINE('',#776,#777);
#776 = CARTESIAN_POINT('',(0.,-0.));
#777 = VECTOR('',#778,1.);
#778 = DIRECTION('',(0.,1.));
#779 = ( GEOMETRIC_REPRESENTATION_CONTEXT(2) 
PARAMETRIC_REPRESENTATION_CONTEXT() REPRESENTATION_CONTEXT('2D SPACE',''
  ) );
#780 = ORIENTED_EDGE('',*,*,#671,.F.);
#781 = ORIENTED_EDGE('',*,*,#758,.F.);
#782 = ORIENTED_EDGE('',*,*,#783,.T.);
#783 = EDGE_CURVE('',#759,#759,#784,.T.);
#784 = SURFACE_CURVE('',#785,(#790,#797),.PCURVE_S1.);
#785 = CIRCLE('',#786,67.);
#786 = AXIS2_PLACEMENT_3D('',#787,#788,#789);
#787 = CARTESIAN_POINT('',(0.,0.,82.));
#788 = DIRECTION('',(0.,0.,1.));
#789 = DIRECTION('',(1.,0.,-0.));
#790 = PCURVE('',#688,#791);
#791 = DEFINITIONAL_REPRESENTATION('',(#792),#796);
#792 = LINE('',#793,#794);
#793 = CARTESIAN_POINT('',(0.,79.));
#794 = VECTOR('',#795,1.);
#795 = DIRECTION('',(1.,0.));
#796 = ( GEOMETRIC_REPRESENTATION_CONTEXT(2) 
PARAMETRIC_REPRESENTATION_CONTEXT() REPRESENTATION_CONTEXT('2D SPACE',''
  ) );
#797 = PCURVE('',#798,#803);
#798 = PLANE('',#799);
#799 = AXIS2_PLACEMENT_3D('',#800,#801,#802);
#800 = CARTESIAN_POINT('',(0.,0.,82.));
#801 = DIRECTION('',(0.,0.,1.));
#802 = DIRECTION('',(1.,0.,-0.));
#803 = DEFINITIONAL_REPRESENTATION('',(#804),#808);
#804 = CIRCLE('',#805,67.);
#805 = AXIS2_PLACEMENT_2D('',#806,#807);
#806 = CARTESIAN_POINT('',(0.,0.));
#807 = DIRECTION('',(1.,0.));
#808 = ( GEOMETRIC_REPRESENTATION_CONTEXT(2) 
PARAMETRIC_REPRESENTATION_CONTEXT() REPRESENTATION_CONTEXT('2D SPACE',''
  ) );
#809 = ADVANCED_FACE('',(#810),#742,.F.);
#810 = FACE_BOUND('',#811,.F.);
#811 = EDGE_LOOP('',(#812,#835,#836,#837,#1072,#1101));
#812 = ORIENTED_EDGE('',*,*,#813,.T.);
#813 = EDGE_CURVE('',#814,#705,#816,.T.);
#814 = VERTEX_POINT('',#815);
#815 = CARTESIAN_POINT('',(8.,-66.52067347825,64.52067347825));
#816 = SEAM_CURVE('',#817,(#821,#828),.PCURVE_S1.);
#817 = LINE('',#818,#819);
#818 = CARTESIAN_POINT('',(8.,-61.51471862576,59.514718625761));
#819 = VECTOR('',#820,1.);
#820 = DIRECTION('',(0.,-0.707106781187,0.707106781187));
#821 = PCURVE('',#742,#822);
#822 = DEFINITIONAL_REPRESENTATION('',(#823),#827);
#823 = LINE('',#824,#825);
#824 = CARTESIAN_POINT('',(6.28318530718,-0.));
#825 = VECTOR('',#826,1.);
#826 = DIRECTION('',(0.,1.));
#827 = ( GEOMETRIC_REPRESENTATION_CONTEXT(2) 
PARAMETRIC_REPRESENTATION_CONTEXT() REPRESENTATION_CONTEXT('2D SPACE',''
  ) );
#828 = PCURVE('',#742,#829);
#829 = DEFINITIONAL_REPRESENTATION('',(#830),#834);
#830 = LINE('',#831,#832);
#831 = CARTESIAN_POINT('',(0.,-0.));
#832 = VECTOR('',#833,1.);
#833 = DIRECTION('',(0.,1.));
#834 = ( GEOMETRIC_REPRESENTATION_CONTEXT(2) 
PARAMETRIC_REPRESENTATION_CONTEXT() REPRESENTATION_CONTEXT('2D SPACE',''
  ) );
#835 = ORIENTED_EDGE('',*,*,#727,.F.);
#836 = ORIENTED_EDGE('',*,*,#813,.F.);
#837 = ORIENTED_EDGE('',*,*,#838,.T.);
#838 = EDGE_CURVE('',#814,#839,#841,.T.);
#839 = VERTEX_POINT('',#840);
#840 = CARTESIAN_POINT('',(-2.137624591236,-66.9658910275,
    54.063546224023));
#841 = SURFACE_CURVE('',#842,(#915,#991),.PCURVE_S1.);
#842 = B_SPLINE_CURVE_WITH_KNOTS('',8,(#843,#844,#845,#846,#847,#848,
    #849,#850,#851,#852,#853,#854,#855,#856,#857,#858,#859,#860,#861,
    #862,#863,#864,#865,#866,#867,#868,#869,#870,#871,#872,#873,#874,
    #875,#876,#877,#878,#879,#880,#881,#882,#883,#884,#885,#886,#887,
    #888,#889,#890,#891,#892,#893,#894,#895,#896,#897,#898,#899,#900,
    #901,#902,#903,#904,#905,#906,#907,#908,#909,#910,#911,#912,#913,
    #914),.UNSPECIFIED.,.F.,.F.,(9,7,7,7,7,7,7,7,7,7,9),(0.,
    0.12747205969,0.26340368301,0.319763006318,0.376315832001,
    0.435690340314,0.561521836417,0.672881197649,0.882632814744,
    0.928599327113,1.),.UNSPECIFIED.);
#843 = CARTESIAN_POINT('',(8.,-66.52067347825,64.52067347825));
#844 = CARTESIAN_POINT('',(8.,-66.52067347825,65.142834713126));
#845 = CARTESIAN_POINT('',(7.972351205601,-66.52399865857,
    65.763865523228));
#846 = CARTESIAN_POINT('',(7.917745995855,-66.53056553939,
    66.383470103436));
#847 = CARTESIAN_POINT('',(7.836389927266,-66.5402845278,67.00142513468)
  );
#848 = CARTESIAN_POINT('',(7.72802959228,-66.55306332149,67.617415485385
    ));
#849 = CARTESIAN_POINT('',(7.591982034097,-66.56879829537,
    68.230851693446));
#850 = CARTESIAN_POINT('',(7.427165717808,-66.58735387114,
    68.840669228718));
#851 = CARTESIAN_POINT('',(7.024157238457,-66.63111119399,
    70.089662957181));
#852 = CARTESIAN_POINT('',(6.784538932294,-66.65637689483,
    70.719679163884));
#853 = CARTESIAN_POINT('',(6.510391795755,-66.68424373042,
    71.341680029486));
#854 = CARTESIAN_POINT('',(6.196561502363,-66.7147245341,71.959376679243
    ));
#855 = CARTESIAN_POINT('',(5.836457476902,-66.74774962494,
    72.572415099102));
#856 = CARTESIAN_POINT('',(5.422650616549,-66.78292891532,73.17550279145
    ));
#857 = CARTESIAN_POINT('',(4.947516384553,-66.81929775505,
    73.757490401243));
#858 = CARTESIAN_POINT('',(4.178936509768,-66.86992937567,
    74.524907620911));
#859 = CARTESIAN_POINT('',(3.941163459745,-66.88472202146,
    74.743828511143));
#860 = CARTESIAN_POINT('',(3.689027187552,-66.89942064994,
    74.956574058865));
#861 = CARTESIAN_POINT('',(3.42068589913,-66.91392600131,75.162149938514
    ));
#862 = CARTESIAN_POINT('',(3.134377872545,-66.92806992327,
    75.358699732832));
#863 = CARTESIAN_POINT('',(2.828488155782,-66.94160381171,
    75.543464736549));
#864 = CARTESIAN_POINT('',(2.501616420503,-66.9541919636,75.712742177662
    ));
#865 = CARTESIAN_POINT('',(1.802477378576,-66.97666623571,
    76.011453449243));
#866 = CARTESIAN_POINT('',(1.418054971041,-66.98692872435,
    76.145877085057));
#867 = CARTESIAN_POINT('',(1.008366288668,-66.99519379894,
    76.252466405791));
#868 = CARTESIAN_POINT('',(0.581690024727,-67.00068036081,
    76.322441459438));
#869 = CARTESIAN_POINT('',(0.146389309255,-67.00290457318,
    76.350770346427));
#870 = CARTESIAN_POINT('',(-0.289089964642,-67.00173987906,
    76.336136301198));
#871 = CARTESIAN_POINT('',(-0.716421810745,-66.99742931175,
    76.280948676059));
#872 = CARTESIAN_POINT('',(-1.558494020067,-66.98326026018,
    76.097293733757));
#873 = CARTESIAN_POINT('',(-1.963618131965,-66.97326891046,
    75.967036391501));
#874 = CARTESIAN_POINT('',(-2.342867917115,-66.96121275185,
    75.808213538553));
#875 = CARTESIAN_POINT('',(-2.697101679487,-66.94767738317,
    75.627227932842));
#876 = CARTESIAN_POINT('',(-3.027599882445,-66.93314440127,
    75.429323930341));
#877 = CARTESIAN_POINT('',(-3.335945527022,-66.91798489262,
    75.218639274354));
#878 = CARTESIAN_POINT('',(-3.623935327121,-66.90246644041,
    74.998240563168));
#879 = CARTESIAN_POINT('',(-4.464851959319,-66.85351614783,
    74.28673740565));
#880 = CARTESIAN_POINT('',(-4.966489375926,-66.81871873224,
    73.757782177711));
#881 = CARTESIAN_POINT('',(-5.405228852292,-66.78436763516,
    73.204115732751));
#882 = CARTESIAN_POINT('',(-5.789086073029,-66.75159165945,
    72.638649135208));
#883 = CARTESIAN_POINT('',(-6.126174137977,-66.72086286896,
    72.067759197171));
#884 = CARTESIAN_POINT('',(-6.424004852845,-66.69225487871,
    71.492152880018));
#885 = CARTESIAN_POINT('',(-6.688831058091,-66.6657014391,
    70.907702989491));
#886 = CARTESIAN_POINT('',(-7.133340133124,-66.61951277119,
    69.774924686334));
#887 = CARTESIAN_POINT('',(-7.316376223379,-66.59973861343,
    69.23765686581));
#888 = CARTESIAN_POINT('',(-7.47514540942,-66.5820549751,68.696640331348
    ));
#889 = CARTESIAN_POINT('',(-7.610808154994,-66.56658194222,
    68.152943512995));
#890 = CARTESIAN_POINT('',(-7.724264427266,-66.55340550865,
    67.607147233191));
#891 = CARTESIAN_POINT('',(-7.816122714565,-66.54259656772,
    67.059477808987));
#892 = CARTESIAN_POINT('',(-7.886668278593,-66.53422363559,
    66.509941260988));
#893 = CARTESIAN_POINT('',(-8.028430714596,-66.51731351343,
    64.919710089263));
#894 = CARTESIAN_POINT('',(-8.04413085364,-66.5152915685,63.885707940152
    ));
#895 = CARTESIAN_POINT('',(-7.985713952827,-66.52239383446,
    62.853160478871));
#896 = CARTESIAN_POINT('',(-7.850225633801,-66.53888424395,
    61.818579925555));
#897 = CARTESIAN_POINT('',(-7.629734249594,-66.56523745345,
    60.781640465547));
#898 = CARTESIAN_POINT('',(-7.311875848098,-66.60183025512,
    59.747870663468));
#899 = CARTESIAN_POINT('',(-6.880188964273,-66.64821623058,
    58.730567823873));
#900 = CARTESIAN_POINT('',(-6.191755656875,-66.71339905147,
    57.543628478784));
#901 = CARTESIAN_POINT('',(-6.061370351067,-66.72547958673,
    57.331941224347));
#902 = CARTESIAN_POINT('',(-5.923971374449,-66.73790990599,
    57.122000693903));
#903 = CARTESIAN_POINT('',(-5.779154279036,-66.75067068805,
    56.913968625198));
#904 = CARTESIAN_POINT('',(-5.626492984273,-66.76373490768,
    56.708099937408));
#905 = CARTESIAN_POINT('',(-5.465545167458,-66.77706561397,
    56.504750335396));
#906 = CARTESIAN_POINT('',(-5.295857654181,-66.79061370879,
    56.304383913974));
#907 = CARTESIAN_POINT('',(-4.83910496449,-66.82559933227,
    55.801882619279));
#908 = CARTESIAN_POINT('',(-4.538899903256,-66.84726529081,
    55.504622713344));
#909 = CARTESIAN_POINT('',(-4.213922690061,-66.86912822976,
    55.217251789594));
#910 = CARTESIAN_POINT('',(-3.861706268573,-66.89089776461,
    54.942355343769));
#911 = CARTESIAN_POINT('',(-3.479854933115,-66.91215046234,
    54.683716422962));
#912 = CARTESIAN_POINT('',(-3.066211023333,-66.93228925138,
    54.446417467435));
#913 = CARTESIAN_POINT('',(-2.619093993271,-66.95052201542,
    54.236980540434));
#914 = CARTESIAN_POINT('',(-2.137622006608,-66.96589111,54.063545292991)
  );
#915 = PCURVE('',#742,#916);
#916 = DEFINITIONAL_REPRESENTATION('',(#917),#990);
#917 = B_SPLINE_CURVE_WITH_KNOTS('',8,(#918,#919,#920,#921,#922,#923,
    #924,#925,#926,#927,#928,#929,#930,#931,#932,#933,#934,#935,#936,
    #937,#938,#939,#940,#941,#942,#943,#944,#945,#946,#947,#948,#949,
    #950,#951,#952,#953,#954,#955,#956,#957,#958,#959,#960,#961,#962,
    #963,#964,#965,#966,#967,#968,#969,#970,#971,#972,#973,#974,#975,
    #976,#977,#978,#979,#980,#981,#982,#983,#984,#985,#986,#987,#988,
    #989),.UNSPECIFIED.,.F.,.F.,(9,7,7,7,7,7,7,7,7,7,9),(0.,
    0.12747205969,0.26340368301,0.319763006318,0.376315832001,
    0.435690340314,0.561521836417,0.672881197649,0.882632814744,
    0.928599327113,1.),.UNSPECIFIED.);
#918 = CARTESIAN_POINT('',(0.,7.079489245017));
#919 = CARTESIAN_POINT('',(5.499180352153E-02,7.519423673189));
#920 = CARTESIAN_POINT('',(0.109589906228,7.960910027894));
#921 = CARTESIAN_POINT('',(0.164028388549,8.403680114171));
#922 = CARTESIAN_POINT('',(0.218534552529,8.847512669844));
#923 = CARTESIAN_POINT('',(0.273331801909,9.29211959565));
#924 = CARTESIAN_POINT('',(0.328643108372,9.737010804924));
#925 = CARTESIAN_POINT('',(0.384695063964,10.181337692861));
#926 = CARTESIAN_POINT('',(0.502534549013,11.095450727631));
#927 = CARTESIAN_POINT('',(0.563661303646,11.558805008039));
#928 = CARTESIAN_POINT('',(0.626127909169,12.018330866428));
#929 = CARTESIAN_POINT('',(0.690861997214,12.476661539165));
#930 = CARTESIAN_POINT('',(0.758683626905,12.933497428654));
#931 = CARTESIAN_POINT('',(0.830319555786,13.384820340349));
#932 = CARTESIAN_POINT('',(0.906450864766,13.822064378998));
#933 = CARTESIAN_POINT('',(1.021532752827,14.400512261305));
#934 = CARTESIAN_POINT('',(1.056277876849,14.565772687488));
#935 = CARTESIAN_POINT('',(1.092284136326,14.726600006821));
#936 = CARTESIAN_POINT('',(1.12977397329,14.882220937687));
#937 = CARTESIAN_POINT('',(1.168947574624,15.031203893219));
#938 = CARTESIAN_POINT('',(1.209987398878,15.171422384563));
#939 = CARTESIAN_POINT('',(1.253066104423,15.300020778643));
#940 = CARTESIAN_POINT('',(1.343805156783,15.527133254601));
#941 = CARTESIAN_POINT('',(1.393038727841,15.629441794346));
#942 = CARTESIAN_POINT('',(1.444842239505,15.710656116131));
#943 = CARTESIAN_POINT('',(1.498273392376,15.764015536184));
#944 = CARTESIAN_POINT('',(1.552512532652,15.785619839924));
#945 = CARTESIAN_POINT('',(1.606784901435,15.774448444197));
#946 = CARTESIAN_POINT('',(1.660302058262,15.73237686885));
#947 = CARTESIAN_POINT('',(1.766621766226,15.5924941813));
#948 = CARTESIAN_POINT('',(1.818255041687,15.49332338015));
#949 = CARTESIAN_POINT('',(1.867261721907,15.372493672313));
#950 = CARTESIAN_POINT('',(1.91381612841,15.234946572241));
#951 = CARTESIAN_POINT('',(1.958088373965,15.084730939995));
#952 = CARTESIAN_POINT('',(2.000256888177,14.92503499969));
#953 = CARTESIAN_POINT('',(2.040518099634,14.758216373657));
#954 = CARTESIAN_POINT('',(2.160845058618,14.220494582314));
#955 = CARTESIAN_POINT('',(2.236879970018,13.821861265166));
#956 = CARTESIAN_POINT('',(2.30796056345,13.406070073729));
#957 = CARTESIAN_POINT('',(2.374802122395,12.983048693388));
#958 = CARTESIAN_POINT('',(2.438178432466,12.557640010756));
#959 = CARTESIAN_POINT('',(2.498981948493,12.130395976702));
#960 = CARTESIAN_POINT('',(2.558242084141,11.698351378634));
#961 = CARTESIAN_POINT('',(2.669198637822,10.864695838598));
#962 = CARTESIAN_POINT('',(2.720248082434,10.470807678346));
#963 = CARTESIAN_POINT('',(2.770440416722,10.07574699752));
#964 = CARTESIAN_POINT('',(2.819955474741,9.680354203873));
#965 = CARTESIAN_POINT('',(2.868971698095,9.285100807752));
#966 = CARTESIAN_POINT('',(2.917669604348,8.890196968621));
#967 = CARTESIAN_POINT('',(2.966233220252,8.495695391933));
#968 = CARTESIAN_POINT('',(3.106420937636,7.359274884697));
#969 = CARTESIAN_POINT('',(3.197152642954,6.626695222327));
#970 = CARTESIAN_POINT('',(3.288554112489,5.901595970989));
#971 = CARTESIAN_POINT('',(3.381994582642,5.181697526421));
#972 = CARTESIAN_POINT('',(3.478768716293,4.46710513572));
#973 = CARTESIAN_POINT('',(3.580159771747,3.761994516682));
#974 = CARTESIAN_POINT('',(3.687503988691,3.075452618086));
#975 = CARTESIAN_POINT('',(3.82769612125,2.282250972987));
#976 = CARTESIAN_POINT('',(3.853314246174,2.141107708283));
#977 = CARTESIAN_POINT('',(3.879397546991,2.001446898603));
#978 = CARTESIAN_POINT('',(3.905992088213,1.863369247649));
#979 = CARTESIAN_POINT('',(3.933143126472,1.727035900764));
#980 = CARTESIAN_POINT('',(3.960895471059,1.592672251046));
#981 = CARTESIAN_POINT('',(3.989293844468,1.460571745459));
#982 = CARTESIAN_POINT('',(4.063568368316,1.129988244031));
#983 = CARTESIAN_POINT('',(4.11044443268,0.935113894973));
#984 = CARTESIAN_POINT('',(4.159293479782,0.747371398461));
#985 = CARTESIAN_POINT('',(4.21037450707,0.568383643209));
#986 = CARTESIAN_POINT('',(4.263933851741,0.400526235114));
#987 = CARTESIAN_POINT('',(4.320210549554,0.24697080879));
#988 = CARTESIAN_POINT('',(4.379445080567,0.111769048564));
#989 = CARTESIAN_POINT('',(4.441899915964,-6.E-07));
#990 = ( GEOMETRIC_REPRESENTATION_CONTEXT(2) 
PARAMETRIC_REPRESENTATION_CONTEXT() REPRESENTATION_CONTEXT('2D SPACE',''
  ) );
#991 = PCURVE('',#992,#997);
#992 = CYLINDRICAL_SURFACE('',#993,67.);
#993 = AXIS2_PLACEMENT_3D('',#994,#995,#996);
#994 = CARTESIAN_POINT('',(0.,0.,3.));
#995 = DIRECTION('',(0.,0.,1.));
#996 = DIRECTION('',(1.,0.,-0.));
#997 = DEFINITIONAL_REPRESENTATION('',(#998),#1071);
#998 = B_SPLINE_CURVE_WITH_KNOTS('',8,(#999,#1000,#1001,#1002,#1003,
    #1004,#1005,#1006,#1007,#1008,#1009,#1010,#1011,#1012,#1013,#1014,
    #1015,#1016,#1017,#1018,#1019,#1020,#1021,#1022,#1023,#1024,#1025,
    #1026,#1027,#1028,#1029,#1030,#1031,#1032,#1033,#1034,#1035,#1036,
    #1037,#1038,#1039,#1040,#1041,#1042,#1043,#1044,#1045,#1046,#1047,
    #1048,#1049,#1050,#1051,#1052,#1053,#1054,#1055,#1056,#1057,#1058,
    #1059,#1060,#1061,#1062,#1063,#1064,#1065,#1066,#1067,#1068,#1069,
    #1070),.UNSPECIFIED.,.F.,.F.,(9,7,7,7,7,7,7,7,7,7,9),(0.,
    0.12747205969,0.26340368301,0.319763006318,0.376315832001,
    0.435690340314,0.561521836417,0.672881197649,0.882632814744,
    0.928599327113,1.),.UNSPECIFIED.);
#999 = CARTESIAN_POINT('',(4.832077524177,61.52067347825));
#1000 = CARTESIAN_POINT('',(4.832077524177,62.142834713126));
#1001 = CARTESIAN_POINT('',(4.831661881728,62.763865523228));
#1002 = CARTESIAN_POINT('',(4.830841006735,63.383470103436));
#1003 = CARTESIAN_POINT('',(4.82961810341,64.00142513468));
#1004 = CARTESIAN_POINT('',(4.827989581195,64.617415485385));
#1005 = CARTESIAN_POINT('',(4.825945497238,65.230851693446));
#1006 = CARTESIAN_POINT('',(4.823470030456,65.840669228718));
#1007 = CARTESIAN_POINT('',(4.817419627,67.089662957181));
#1008 = CARTESIAN_POINT('',(4.81382342574,67.719679163884));
#1009 = CARTESIAN_POINT('',(4.809710642164,68.341680029487));
#1010 = CARTESIAN_POINT('',(4.805004672296,68.959376679243));
#1011 = CARTESIAN_POINT('',(4.799607612783,69.572415099101));
#1012 = CARTESIAN_POINT('',(4.793409417262,70.17550279145));
#1013 = CARTESIAN_POINT('',(4.786297517431,70.757490401243));
#1014 = CARTESIAN_POINT('',(4.774801311533,71.524907620911));
#1015 = CARTESIAN_POINT('',(4.771245622449,71.743828511142));
#1016 = CARTESIAN_POINT('',(4.767476054507,71.956574058865));
#1017 = CARTESIAN_POINT('',(4.763465189657,72.162149938514));
#1018 = CARTESIAN_POINT('',(4.759186826737,72.358699732832));
#1019 = CARTESIAN_POINT('',(4.754616959933,72.543464736549));
#1020 = CARTESIAN_POINT('',(4.749734759534,72.712742177662));
#1021 = CARTESIAN_POINT('',(4.739294458435,73.011453449243));
#1022 = CARTESIAN_POINT('',(4.733554851672,73.145877085057));
#1023 = CARTESIAN_POINT('',(4.727439069949,73.252466405791));
#1024 = CARTESIAN_POINT('',(4.721070593822,73.322441459438));
#1025 = CARTESIAN_POINT('',(4.714573872466,73.350770346427));
#1026 = CARTESIAN_POINT('',(4.708074458847,73.336136301197));
#1027 = CARTESIAN_POINT('',(4.70169619166,73.280948676059));
#1028 = CARTESIAN_POINT('',(4.689126170645,73.097293733757));
#1029 = CARTESIAN_POINT('',(4.683077889444,72.967036391501));
#1030 = CARTESIAN_POINT('',(4.677414810826,72.808213538553));
#1031 = CARTESIAN_POINT('',(4.672124077499,72.627227932842));
#1032 = CARTESIAN_POINT('',(4.667186643488,72.429323930341));
#1033 = CARTESIAN_POINT('',(4.662578997717,72.218639274354));
#1034 = CARTESIAN_POINT('',(4.658274447053,71.998240563168));
#1035 = CARTESIAN_POINT('',(4.64570220614,71.28673740565));
#1036 = CARTESIAN_POINT('',(4.638197551848,70.757782177711));
#1037 = CARTESIAN_POINT('',(4.63162952379,70.20411573275));
#1038 = CARTESIAN_POINT('',(4.625879686506,69.638649135208));
#1039 = CARTESIAN_POINT('',(4.620827791514,69.067759197172));
#1040 = CARTESIAN_POINT('',(4.616362164653,68.492152880018));
#1041 = CARTESIAN_POINT('',(4.612389741182,67.907702989491));
#1042 = CARTESIAN_POINT('',(4.605719556847,66.774924686334));
#1043 = CARTESIAN_POINT('',(4.602971801319,66.237656865811));
#1044 = CARTESIAN_POINT('',(4.600587477735,65.696640331348));
#1045 = CARTESIAN_POINT('',(4.598549542879,65.152943512995));
#1046 = CARTESIAN_POINT('',(4.596844787917,64.607147233191));
#1047 = CARTESIAN_POINT('',(4.59546431133,64.059477808987));
#1048 = CARTESIAN_POINT('',(4.594404002177,63.509941260988));
#1049 = CARTESIAN_POINT('',(4.592273144938,61.919710089263));
#1050 = CARTESIAN_POINT('',(4.592036890216,60.885707940152));
#1051 = CARTESIAN_POINT('',(4.592915194737,59.853160478872));
#1052 = CARTESIAN_POINT('',(4.594952351532,58.818579925554));
#1053 = CARTESIAN_POINT('',(4.598266654831,57.781640465548));
#1054 = CARTESIAN_POINT('',(4.603042089267,56.747870663467));
#1055 = CARTESIAN_POINT('',(4.609521749528,55.730567823873));
#1056 = CARTESIAN_POINT('',(4.619842828177,54.543628478784));
#1057 = CARTESIAN_POINT('',(4.621797208411,54.331941224347));
#1058 = CARTESIAN_POINT('',(4.623856306532,54.122000693903));
#1059 = CARTESIAN_POINT('',(4.626026118597,53.913968625198));
#1060 = CARTESIAN_POINT('',(4.628312957364,53.708099937408));
#1061 = CARTESIAN_POINT('',(4.630723372054,53.504750335396));
#1062 = CARTESIAN_POINT('',(4.633264068101,53.304383913974));
#1063 = CARTESIAN_POINT('',(4.640101241489,52.801882619279));
#1064 = CARTESIAN_POINT('',(4.64459352454,52.504622713344));
#1065 = CARTESIAN_POINT('',(4.649454794594,52.217251789594));
#1066 = CARTESIAN_POINT('',(4.654721621143,51.942355343769));
#1067 = CARTESIAN_POINT('',(4.660429472668,51.683716422962));
#1068 = CARTESIAN_POINT('',(4.666610276564,51.446417467435));
#1069 = CARTESIAN_POINT('',(4.673288949796,51.236980540434));
#1070 = CARTESIAN_POINT('',(4.680478759096,51.063545292991));
#1071 = ( GEOMETRIC_REPRESENTATION_CONTEXT(2) 
PARAMETRIC_REPRESENTATION_CONTEXT() REPRESENTATION_CONTEXT('2D SPACE',''
  ) );
#1072 = ORIENTED_EDGE('',*,*,#1073,.T.);
#1073 = EDGE_CURVE('',#839,#1074,#1076,.T.);
#1074 = VERTEX_POINT('',#1075);
#1075 = CARTESIAN_POINT('',(2.137624591236,-66.9658910275,
    54.063546224023));
#1076 = SURFACE_CURVE('',#1077,(#1082,#1089),.PCURVE_S1.);
#1077 = CIRCLE('',#1078,8.);
#1078 = AXIS2_PLACEMENT_3D('',#1079,#1080,#1081);
#1079 = CARTESIAN_POINT('',(0.,-61.51471862576,59.514718625761));
#1080 = DIRECTION('',(0.,-0.707106781187,0.707106781187));
#1081 = DIRECTION('',(1.,0.,0.));
#1082 = PCURVE('',#742,#1083);
#1083 = DEFINITIONAL_REPRESENTATION('',(#1084),#1088);
#1084 = LINE('',#1085,#1086);
#1085 = CARTESIAN_POINT('',(0.,0.));
#1086 = VECTOR('',#1087,1.);
#1087 = DIRECTION('',(1.,0.));
#1088 = ( GEOMETRIC_REPRESENTATION_CONTEXT(2) 
PARAMETRIC_REPRESENTATION_CONTEXT() REPRESENTATION_CONTEXT('2D SPACE',''
  ) );
#1089 = PCURVE('',#1090,#1095);
#1090 = PLANE('',#1091);
#1091 = AXIS2_PLACEMENT_3D('',#1092,#1093,#1094);
#1092 = CARTESIAN_POINT('',(0.,-61.51471862576,59.514718625761));
#1093 = DIRECTION('',(0.,-0.707106781187,0.707106781187));
#1094 = DIRECTION('',(1.,0.,0.));
#1095 = DEFINITIONAL_REPRESENTATION('',(#1096),#1100);
#1096 = CIRCLE('',#1097,8.);
#1097 = AXIS2_PLACEMENT_2D('',#1098,#1099);
#1098 = CARTESIAN_POINT('',(0.,0.));
#1099 = DIRECTION('',(1.,0.));
#1100 = ( GEOMETRIC_REPRESENTATION_CONTEXT(2) 
PARAMETRIC_REPRESENTATION_CONTEXT() REPRESENTATION_CONTEXT('2D SPACE',''
  ) );
#1101 = ORIENTED_EDGE('',*,*,#1102,.T.);
#1102 = EDGE_CURVE('',#1074,#814,#1103,.T.);
#1103 = SURFACE_CURVE('',#1104,(#1128,#1155),.PCURVE_S1.);
#1104 = B_SPLINE_CURVE_WITH_KNOTS('',8,(#1105,#1106,#1107,#1108,#1109,
    #1110,#1111,#1112,#1113,#1114,#1115,#1116,#1117,#1118,#1119,#1120,
    #1121,#1122,#1123,#1124,#1125,#1126,#1127),.UNSPECIFIED.,.F.,.F.,(9,
    7,7,9),(0.,0.146238779853,0.295885707779,1.),.UNSPECIFIED.);
#1105 = CARTESIAN_POINT('',(2.137622006608,-66.96589111,54.063545292991)
  );
#1106 = CARTESIAN_POINT('',(2.42292988536,-66.95678378103,
    54.166318546513));
#1107 = CARTESIAN_POINT('',(2.696421858164,-66.94666298981,
    54.281822792166));
#1108 = CARTESIAN_POINT('',(2.958191672401,-66.93572664896,
    54.408383720342));
#1109 = CARTESIAN_POINT('',(3.208429301391,-66.92415521134,
    54.544494624419));
#1110 = CARTESIAN_POINT('',(3.447403226438,-66.91210913863,
    54.688807866653));
#1111 = CARTESIAN_POINT('',(3.675443160812,-66.8997279708,
    54.840126263427));
#1112 = CARTESIAN_POINT('',(3.892923215662,-66.88713099656,
    54.997394389874));
#1113 = CARTESIAN_POINT('',(4.312399521667,-66.86141180749,
    55.325767571624));
#1114 = CARTESIAN_POINT('',(4.514280413938,-66.84826183487,
    55.497394127243));
#1115 = CARTESIAN_POINT('',(4.706371166315,-66.83507039664,
    55.673702964631));
#1116 = CARTESIAN_POINT('',(4.889170554044,-66.82191849869,
    55.85398176134));
#1117 = CARTESIAN_POINT('',(5.063184132482,-66.80886987349,
    56.037663348421));
#1118 = CARTESIAN_POINT('',(5.228915223589,-66.79597349052,
    56.224316680291));
#1119 = CARTESIAN_POINT('',(5.386855902422,-66.78326606669,
    56.413637804603));
#1120 = CARTESIAN_POINT('',(6.246180538198,-66.71199998836,
    57.507906755261));
#1121 = CARTESIAN_POINT('',(6.803643592381,-66.65711154362,
    58.479048334508));
#1122 = CARTESIAN_POINT('',(7.231383546632,-66.61076511971,
    59.47820662456));
#1123 = CARTESIAN_POINT('',(7.55043248919,-66.57427327238,
    60.484682918812));
#1124 = CARTESIAN_POINT('',(7.777747263542,-66.54739961553,
    61.489236066118));
#1125 = CARTESIAN_POINT('',(7.925516493808,-66.5296316727,
    62.492016605772));
#1126 = CARTESIAN_POINT('',(8.,-66.52067347825,63.499508285714));
#1127 = CARTESIAN_POINT('',(8.,-66.52067347825,64.52067347825));
#1128 = PCURVE('',#742,#1129);
#1129 = DEFINITIONAL_REPRESENTATION('',(#1130),#1154);
#1130 = B_SPLINE_CURVE_WITH_KNOTS('',8,(#1131,#1132,#1133,#1134,#1135,
    #1136,#1137,#1138,#1139,#1140,#1141,#1142,#1143,#1144,#1145,#1146,
    #1147,#1148,#1149,#1150,#1151,#1152,#1153),.UNSPECIFIED.,.F.,.F.,(9,
    7,7,9),(0.,0.146238779853,0.295885707779,1.),.UNSPECIFIED.);
#1131 = CARTESIAN_POINT('',(4.982878044805,-6.E-07));
#1132 = CARTESIAN_POINT('',(5.019887169112,6.623121041464E-02));
#1133 = CARTESIAN_POINT('',(5.055797625108,0.140748565671));
#1134 = CARTESIAN_POINT('',(5.090653701154,0.22250749544));
#1135 = CARTESIAN_POINT('',(5.124496471735,0.3105701967));
#1136 = CARTESIAN_POINT('',(5.157365430103,0.404097209201));
#1137 = CARTESIAN_POINT('',(5.189299530857,0.502340665945));
#1138 = CARTESIAN_POINT('',(5.220337642482,0.60463861871));
#1139 = CARTESIAN_POINT('',(5.281402550934,0.81864730929));
#1140 = CARTESIAN_POINT('',(5.311441946698,0.930707175786));
#1141 = CARTESIAN_POINT('',(5.340689206119,1.046048594858));
#1142 = CARTESIAN_POINT('',(5.369196754478,1.164225158288));
#1143 = CARTESIAN_POINT('',(5.397017349089,1.28488088273));
#1144 = CARTESIAN_POINT('',(5.424204595077,1.407745599578));
#1145 = CARTESIAN_POINT('',(5.450813461137,1.53263034484));
#1146 = CARTESIAN_POINT('',(5.599646147271,2.256002613034));
#1147 = CARTESIAN_POINT('',(5.712711782597,2.903891417729));
#1148 = CARTESIAN_POINT('',(5.818080547274,3.577631149472));
#1149 = CARTESIAN_POINT('',(5.917270754458,4.263513729534));
#1150 = CARTESIAN_POINT('',(6.01176034623,4.954837527066));
#1151 = CARTESIAN_POINT('',(6.103083558186,5.651346613831));
#1152 = CARTESIAN_POINT('',(6.192926203135,6.357416412663));
#1153 = CARTESIAN_POINT('',(6.28318530718,7.079489245017));
#1154 = ( GEOMETRIC_REPRESENTATION_CONTEXT(2) 
PARAMETRIC_REPRESENTATION_CONTEXT() REPRESENTATION_CONTEXT('2D SPACE',''
  ) );
#1155 = PCURVE('',#992,#1156);
#1156 = DEFINITIONAL_REPRESENTATION('',(#1157),#1181);
#1157 = B_SPLINE_CURVE_WITH_KNOTS('',8,(#1158,#1159,#1160,#1161,#1162,
    #1163,#1164,#1165,#1166,#1167,#1168,#1169,#1170,#1171,#1172,#1173,
    #1174,#1175,#1176,#1177,#1178,#1179,#1180),.UNSPECIFIED.,.F.,.F.,(9,
    7,7,9),(0.,0.146238779853,0.295885707779,1.),.UNSPECIFIED.);
#1158 = CARTESIAN_POINT('',(4.744299201673,51.063545292991));
#1159 = CARTESIAN_POINT('',(4.748559697189,51.166318546513));
#1160 = CARTESIAN_POINT('',(4.752644408244,51.281822792166));
#1161 = CARTESIAN_POINT('',(4.756554757123,51.408383720342));
#1162 = CARTESIAN_POINT('',(4.760293568541,51.544494624419));
#1163 = CARTESIAN_POINT('',(4.763864815847,51.688807866653));
#1164 = CARTESIAN_POINT('',(4.767273371942,51.840126263427));
#1165 = CARTESIAN_POINT('',(4.770524764889,51.997394389874));
#1166 = CARTESIAN_POINT('',(4.776797362228,52.325767571624));
#1167 = CARTESIAN_POINT('',(4.779816873742,52.497394127243));
#1168 = CARTESIAN_POINT('',(4.782690623385,52.673702964631));
#1169 = CARTESIAN_POINT('',(4.785425997498,52.85398176134));
#1170 = CARTESIAN_POINT('',(4.788030485534,53.037663348421));
#1171 = CARTESIAN_POINT('',(4.790511547446,53.224316680291));
#1172 = CARTESIAN_POINT('',(4.792876481086,53.413637804603));
#1173 = CARTESIAN_POINT('',(4.805746252947,54.507906755261));
#1174 = CARTESIAN_POINT('',(4.814105839955,55.479048334508));
#1175 = CARTESIAN_POINT('',(4.820527166725,56.47820662456));
#1176 = CARTESIAN_POINT('',(4.825320036803,57.484682918812));
#1177 = CARTESIAN_POINT('',(4.828736423553,58.489236066117));
#1178 = CARTESIAN_POINT('',(4.830957818122,59.492016605772));
#1179 = CARTESIAN_POINT('',(4.832077524177,60.499508285714));
#1180 = CARTESIAN_POINT('',(4.832077524177,61.52067347825));
#1181 = ( GEOMETRIC_REPRESENTATION_CONTEXT(2) 
PARAMETRIC_REPRESENTATION_CONTEXT() REPRESENTATION_CONTEXT('2D SPACE',''
  ) );
#1182 = ADVANCED_FACE('',(#1183,#1186),#798,.T.);
#1183 = FACE_BOUND('',#1184,.T.);
#1184 = EDGE_LOOP('',(#1185));
#1185 = ORIENTED_EDGE('',*,*,#783,.T.);
#1186 = FACE_BOUND('',#1187,.T.);
#1187 = EDGE_LOOP('',(#1188));
#1188 = ORIENTED_EDGE('',*,*,#1189,.F.);
#1189 = EDGE_CURVE('',#1190,#1190,#1192,.T.);
#1190 = VERTEX_POINT('',#1191);
#1191 = CARTESIAN_POINT('',(60.,-1.469576158977E-14,82.));
#1192 = SURFACE_CURVE('',#1193,(#1198,#1205),.PCURVE_S1.);
#1193 = CIRCLE('',#1194,60.);
#1194 = AXIS2_PLACEMENT_3D('',#1195,#1196,#1197);
#1195 = CARTESIAN_POINT('',(0.,0.,82.));
#1196 = DIRECTION('',(0.,0.,1.));
#1197 = DIRECTION('',(1.,0.,-0.));
#1198 = PCURVE('',#798,#1199);
#1199 = DEFINITIONAL_REPRESENTATION('',(#1200),#1204);
#1200 = CIRCLE('',#1201,60.);
#1201 = AXIS2_PLACEMENT_2D('',#1202,#1203);
#1202 = CARTESIAN_POINT('',(0.,0.));
#1203 = DIRECTION('',(1.,0.));
#1204 = ( GEOMETRIC_REPRESENTATION_CONTEXT(2) 
PARAMETRIC_REPRESENTATION_CONTEXT() REPRESENTATION_CONTEXT('2D SPACE',''
  ) );
#1205 = PCURVE('',#1206,#1211);
#1206 = CYLINDRICAL_SURFACE('',#1207,60.);
#1207 = AXIS2_PLACEMENT_3D('',#1208,#1209,#1210);
#1208 = CARTESIAN_POINT('',(0.,0.,78.));
#1209 = DIRECTION('',(0.,0.,1.));
#1210 = DIRECTION('',(1.,0.,-0.));
#1211 = DEFINITIONAL_REPRESENTATION('',(#1212),#1216);
#1212 = LINE('',#1213,#1214);
#1213 = CARTESIAN_POINT('',(0.,4.));
#1214 = VECTOR('',#1215,1.);
#1215 = DIRECTION('',(1.,0.));
#1216 = ( GEOMETRIC_REPRESENTATION_CONTEXT(2) 
PARAMETRIC_REPRESENTATION_CONTEXT() REPRESENTATION_CONTEXT('2D SPACE',''
  ) );
#1217 = ADVANCED_FACE('',(#1218,#1300),#992,.F.);
#1218 = FACE_BOUND('',#1219,.F.);
#1219 = EDGE_LOOP('',(#1220,#1245,#1272,#1273));
#1220 = ORIENTED_EDGE('',*,*,#1221,.T.);
#1221 = EDGE_CURVE('',#1222,#1224,#1226,.T.);
#1222 = VERTEX_POINT('',#1223);
#1223 = CARTESIAN_POINT('',(67.,-1.641026710857E-14,3.));
#1224 = VERTEX_POINT('',#1225);
#1225 = CARTESIAN_POINT('',(67.,-1.641026710857E-14,79.));
#1226 = SEAM_CURVE('',#1227,(#1231,#1238),.PCURVE_S1.);
#1227 = LINE('',#1228,#1229);
#1228 = CARTESIAN_POINT('',(67.,-1.641026710857E-14,3.));
#1229 = VECTOR('',#1230,1.);
#1230 = DIRECTION('',(0.,0.,1.));
#1231 = PCURVE('',#992,#1232);
#1232 = DEFINITIONAL_REPRESENTATION('',(#1233),#1237);
#1233 = LINE('',#1234,#1235);
#1234 = CARTESIAN_POINT('',(6.28318530718,-0.));
#1235 = VECTOR('',#1236,1.);
#1236 = DIRECTION('',(0.,1.));
#1237 = ( GEOMETRIC_REPRESENTATION_CONTEXT(2) 
PARAMETRIC_REPRESENTATION_CONTEXT() REPRESENTATION_CONTEXT('2D SPACE',''
  ) );
#1238 = PCURVE('',#992,#1239);
#1239 = DEFINITIONAL_REPRESENTATION('',(#1240),#1244);
#1240 = LINE('',#1241,#1242);
#1241 = CARTESIAN_POINT('',(0.,-0.));
#1242 = VECTOR('',#1243,1.);
#1243 = DIRECTION('',(0.,1.));
#1244 = ( GEOMETRIC_REPRESENTATION_CONTEXT(2) 
PARAMETRIC_REPRESENTATION_CONTEXT() REPRESENTATION_CONTEXT('2D SPACE',''
  ) );
#1245 = ORIENTED_EDGE('',*,*,#1246,.F.);
#1246 = EDGE_CURVE('',#1224,#1224,#1247,.T.);
#1247 = SURFACE_CURVE('',#1248,(#1253,#1260),.PCURVE_S1.);
#1248 = CIRCLE('',#1249,67.);
#1249 = AXIS2_PLACEMENT_3D('',#1250,#1251,#1252);
#1250 = CARTESIAN_POINT('',(0.,0.,79.));
#1251 = DIRECTION('',(0.,0.,1.));
#1252 = DIRECTION('',(1.,0.,-0.));
#1253 = PCURVE('',#992,#1254);
#1254 = DEFINITIONAL_REPRESENTATION('',(#1255),#1259);
#1255 = LINE('',#1256,#1257);
#1256 = CARTESIAN_POINT('',(0.,76.));
#1257 = VECTOR('',#1258,1.);
#1258 = DIRECTION('',(1.,0.));
#1259 = ( GEOMETRIC_REPRESENTATION_CONTEXT(2) 
PARAMETRIC_REPRESENTATION_CONTEXT() REPRESENTATION_CONTEXT('2D SPACE',''
  ) );
#1260 = PCURVE('',#1261,#1266);
#1261 = PLANE('',#1262);
#1262 = AXIS2_PLACEMENT_3D('',#1263,#1264,#1265);
#1263 = CARTESIAN_POINT('',(0.,0.,79.));
#1264 = DIRECTION('',(0.,0.,1.));
#1265 = DIRECTION('',(1.,0.,-0.));
#1266 = DEFINITIONAL_REPRESENTATION('',(#1267),#1271);
#1267 = CIRCLE('',#1268,67.);
#1268 = AXIS2_PLACEMENT_2D('',#1269,#1270);
#1269 = CARTESIAN_POINT('',(0.,0.));
#1270 = DIRECTION('',(1.,0.));
#1271 = ( GEOMETRIC_REPRESENTATION_CONTEXT(2) 
PARAMETRIC_REPRESENTATION_CONTEXT() REPRESENTATION_CONTEXT('2D SPACE',''
  ) );
#1272 = ORIENTED_EDGE('',*,*,#1221,.F.);
#1273 = ORIENTED_EDGE('',*,*,#1274,.T.);
#1274 = EDGE_CURVE('',#1222,#1222,#1275,.T.);
#1275 = SURFACE_CURVE('',#1276,(#1281,#1288),.PCURVE_S1.);
#1276 = CIRCLE('',#1277,67.);
#1277 = AXIS2_PLACEMENT_3D('',#1278,#1279,#1280);
#1278 = CARTESIAN_POINT('',(0.,0.,3.));
#1279 = DIRECTION('',(0.,0.,1.));
#1280 = DIRECTION('',(1.,0.,-0.));
#1281 = PCURVE('',#992,#1282);
#1282 = DEFINITIONAL_REPRESENTATION('',(#1283),#1287);
#1283 = LINE('',#1284,#1285);
#1284 = CARTESIAN_POINT('',(0.,0.));
#1285 = VECTOR('',#1286,1.);
#1286 = DIRECTION('',(1.,0.));
#1287 = ( GEOMETRIC_REPRESENTATION_CONTEXT(2) 
PARAMETRIC_REPRESENTATION_CONTEXT() REPRESENTATION_CONTEXT('2D SPACE',''
  ) );
#1288 = PCURVE('',#1289,#1294);
#1289 = PLANE('',#1290);
#1290 = AXIS2_PLACEMENT_3D('',#1291,#1292,#1293);
#1291 = CARTESIAN_POINT('',(0.,0.,3.));
#1292 = DIRECTION('',(0.,0.,1.));
#1293 = DIRECTION('',(1.,0.,-0.));
#1294 = DEFINITIONAL_REPRESENTATION('',(#1295),#1299);
#1295 = CIRCLE('',#1296,67.);
#1296 = AXIS2_PLACEMENT_2D('',#1297,#1298);
#1297 = CARTESIAN_POINT('',(0.,0.));
#1298 = DIRECTION('',(1.,0.));
#1299 = ( GEOMETRIC_REPRESENTATION_CONTEXT(2) 
PARAMETRIC_REPRESENTATION_CONTEXT() REPRESENTATION_CONTEXT('2D SPACE',''
  ) );
#1300 = FACE_BOUND('',#1301,.F.);
#1301 = EDGE_LOOP('',(#1302,#1303,#1304));
#1302 = ORIENTED_EDGE('',*,*,#838,.F.);
#1303 = ORIENTED_EDGE('',*,*,#1102,.F.);
#1304 = ORIENTED_EDGE('',*,*,#1305,.F.);
#1305 = EDGE_CURVE('',#839,#1074,#1306,.T.);
#1306 = SURFACE_CURVE('',#1307,(#1312,#1323),.PCURVE_S1.);
#1307 = ELLIPSE('',#1308,94.752308678997,67.);
#1308 = AXIS2_PLACEMENT_3D('',#1309,#1310,#1311);
#1309 = CARTESIAN_POINT('',(0.,0.,121.02943725152));
#1310 = DIRECTION('',(0.,-0.707106781187,0.707106781187));
#1311 = DIRECTION('',(0.,0.707106781187,0.707106781187));
#1312 = PCURVE('',#992,#1313);
#1313 = DEFINITIONAL_REPRESENTATION('',(#1314),#1322);
#1314 = B_SPLINE_CURVE_WITH_KNOTS('',6,(#1315,#1316,#1317,#1318,#1319,
    #1320,#1321),.UNSPECIFIED.,.F.,.F.,(7,7),(2.997814212863,
    3.285371094317),.PIECEWISE_BEZIER_KNOTS.);
#1315 = CARTESIAN_POINT('',(4.568610539658,51.720765118837));
#1316 = CARTESIAN_POINT('',(4.616536686567,51.260674108512));
#1317 = CARTESIAN_POINT('',(4.664462833476,50.983349603096));
#1318 = CARTESIAN_POINT('',(4.712388980384,50.890693823263));
#1319 = CARTESIAN_POINT('',(4.760315127294,50.983349603096));
#1320 = CARTESIAN_POINT('',(4.808241274202,51.260674108512));
#1321 = CARTESIAN_POINT('',(4.856167421111,51.720765118837));
#1322 = ( GEOMETRIC_REPRESENTATION_CONTEXT(2) 
PARAMETRIC_REPRESENTATION_CONTEXT() REPRESENTATION_CONTEXT('2D SPACE',''
  ) );
#1323 = PCURVE('',#1090,#1324);
#1324 = DEFINITIONAL_REPRESENTATION('',(#1325),#1329);
#1325 = ELLIPSE('',#1326,94.752308678997,67.);
#1326 = AXIS2_PLACEMENT_2D('',#1327,#1328);
#1327 = CARTESIAN_POINT('',(0.,86.994949366117));
#1328 = DIRECTION('',(0.,1.));
#1329 = ( GEOMETRIC_REPRESENTATION_CONTEXT(2) 
PARAMETRIC_REPRESENTATION_CONTEXT() REPRESENTATION_CONTEXT('2D SPACE',''
  ) );
#1330 = ADVANCED_FACE('',(#1331),#1090,.T.);
#1331 = FACE_BOUND('',#1332,.T.);
#1332 = EDGE_LOOP('',(#1333,#1334));
#1333 = ORIENTED_EDGE('',*,*,#1305,.F.);
#1334 = ORIENTED_EDGE('',*,*,#1073,.T.);
#1335 = ADVANCED_FACE('',(#1336),#1206,.F.);
#1336 = FACE_BOUND('',#1337,.F.);
#1337 = EDGE_LOOP('',(#1338,#1339,#1362,#1384));
#1338 = ORIENTED_EDGE('',*,*,#1189,.F.);
#1339 = ORIENTED_EDGE('',*,*,#1340,.F.);
#1340 = EDGE_CURVE('',#1341,#1190,#1343,.T.);
#1341 = VERTEX_POINT('',#1342);
#1342 = CARTESIAN_POINT('',(60.,-1.469576158977E-14,79.));
#1343 = SEAM_CURVE('',#1344,(#1348,#1355),.PCURVE_S1.);
#1344 = LINE('',#1345,#1346);
#1345 = CARTESIAN_POINT('',(60.,-1.469576158977E-14,78.));
#1346 = VECTOR('',#1347,1.);
#1347 = DIRECTION('',(0.,0.,1.));
#1348 = PCURVE('',#1206,#1349);
#1349 = DEFINITIONAL_REPRESENTATION('',(#1350),#1354);
#1350 = LINE('',#1351,#1352);
#1351 = CARTESIAN_POINT('',(6.28318530718,-0.));
#1352 = VECTOR('',#1353,1.);
#1353 = DIRECTION('',(0.,1.));
#1354 = ( GEOMETRIC_REPRESENTATION_CONTEXT(2) 
PARAMETRIC_REPRESENTATION_CONTEXT() REPRESENTATION_CONTEXT('2D SPACE',''
  ) );
#1355 = PCURVE('',#1206,#1356);
#1356 = DEFINITIONAL_REPRESENTATION('',(#1357),#1361);
#1357 = LINE('',#1358,#1359);
#1358 = CARTESIAN_POINT('',(0.,-0.));
#1359 = VECTOR('',#1360,1.);
#1360 = DIRECTION('',(0.,1.));
#1361 = ( GEOMETRIC_REPRESENTATION_CONTEXT(2) 
PARAMETRIC_REPRESENTATION_CONTEXT() REPRESENTATION_CONTEXT('2D SPACE',''
  ) );
#1362 = ORIENTED_EDGE('',*,*,#1363,.T.);
#1363 = EDGE_CURVE('',#1341,#1341,#1364,.T.);
#1364 = SURFACE_CURVE('',#1365,(#1370,#1377),.PCURVE_S1.);
#1365 = CIRCLE('',#1366,60.);
#1366 = AXIS2_PLACEMENT_3D('',#1367,#1368,#1369);
#1367 = CARTESIAN_POINT('',(0.,0.,79.));
#1368 = DIRECTION('',(0.,0.,1.));
#1369 = DIRECTION('',(1.,0.,-0.));
#1370 = PCURVE('',#1206,#1371);
#1371 = DEFINITIONAL_REPRESENTATION('',(#1372),#1376);
#1372 = LINE('',#1373,#1374);
#1373 = CARTESIAN_POINT('',(0.,1.));
#1374 = VECTOR('',#1375,1.);
#1375 = DIRECTION('',(1.,0.));
#1376 = ( GEOMETRIC_REPRESENTATION_CONTEXT(2) 
PARAMETRIC_REPRESENTATION_CONTEXT() REPRESENTATION_CONTEXT('2D SPACE',''
  ) );
#1377 = PCURVE('',#1261,#1378);
#1378 = DEFINITIONAL_REPRESENTATION('',(#1379),#1383);
#1379 = CIRCLE('',#1380,60.);
#1380 = AXIS2_PLACEMENT_2D('',#1381,#1382);
#1381 = CARTESIAN_POINT('',(0.,0.));
#1382 = DIRECTION('',(1.,0.));
#1383 = ( GEOMETRIC_REPRESENTATION_CONTEXT(2) 
PARAMETRIC_REPRESENTATION_CONTEXT() REPRESENTATION_CONTEXT('2D SPACE',''
  ) );
#1384 = ORIENTED_EDGE('',*,*,#1340,.T.);
#1385 = ADVANCED_FACE('',(#1386),#1289,.T.);
#1386 = FACE_BOUND('',#1387,.F.);
#1387 = EDGE_LOOP('',(#1388));
#1388 = ORIENTED_EDGE('',*,*,#1274,.F.);
#1389 = ADVANCED_FACE('',(#1390,#1393),#1261,.F.);
#1390 = FACE_BOUND('',#1391,.F.);
#1391 = EDGE_LOOP('',(#1392));
#1392 = ORIENTED_EDGE('',*,*,#1246,.T.);
#1393 = FACE_BOUND('',#1394,.F.);
#1394 = EDGE_LOOP('',(#1395));
#1395 = ORIENTED_EDGE('',*,*,#1363,.F.);
#1396 = ( GEOMETRIC_REPRESENTATION_CONTEXT(3) 
GLOBAL_UNCERTAINTY_ASSIGNED_CONTEXT((#1400)) 
GLOBAL_UNIT_ASSIGNED_CONTEXT((#1397,#1398,#1399)) REPRESENTATION_CONTEXT
('Context #1','3D Context with UNIT and UNCERTAINTY') );
#1397 = ( LENGTH_UNIT() NAMED_UNIT(*) SI_UNIT(.MILLI.,.METRE.) );
#1398 = ( NAMED_UNIT(*) PLANE_ANGLE_UNIT() SI_UNIT($,.RADIAN.) );
#1399 = ( NAMED_UNIT(*) SI_UNIT($,.STERADIAN.) SOLID_ANGLE_UNIT() );
#1400 = UNCERTAINTY_MEASURE_WITH_UNIT(LENGTH_MEASURE(1.E-07),#1397,
  'distance_accuracy_value','confusion accuracy');
#1401 = PRODUCT_RELATED_PRODUCT_CATEGORY('part',$,(#7));
ENDSEC;
END-ISO-10303-21;
